<svg width="384" height="108" viewBox="0 0 384 108" fill="none" xmlns="http://www.w3.org/2000/svg">
<path d="M329.371 0.00190373L54.1292 0.00160354C24.3576 0.00160354 4.72083e-06 24.2811 4.72083e-06 53.9575C4.72083e-06 67.7229 5.24558 80.3207 13.8361 89.8782L1.37813 102.936C-0.410782 104.812 0.921909 107.912 3.51914 107.912L329.371 107.912C359.143 107.912 383.5 83.6323 383.5 53.9559C383.5 24.2796 359.143 1.67633e-05 329.371 1.67633e-05V0.00190373Z" fill="#FF4500"/>
<path d="M60.9075 27.0205H78.9251C82.7336 27.0205 86.0173 27.6187 88.7761 28.815C91.5593 29.9868 93.6834 31.6104 95.1482 33.6856C96.613 35.7608 97.3455 38.1167 97.3455 40.7534C97.3455 43.0484 96.8206 45.2212 95.7708 47.272C94.721 49.3228 93.3294 51.0318 91.596 52.3989C94.6233 53.3999 97.0403 54.9624 98.8469 57.0864C100.654 59.1861 101.557 61.9204 101.557 65.2896C101.557 68.3657 100.788 71.1001 99.2498 73.4927C97.7361 75.8609 95.6121 77.7041 92.8777 79.0225C90.1677 80.3408 87.0794 81 83.6126 81H60.9075V27.0205ZM82.99 70.5264C84.9675 70.5264 86.5789 69.9527 87.824 68.8052C89.0691 67.6577 89.6917 66.1074 89.6917 64.1543C89.6917 62.3233 89.0203 60.8706 87.6775 59.7964C86.3591 58.7222 84.6135 58.1851 82.4407 58.1851H72.8826V70.5264H82.99ZM79.7673 49.1763C81.6228 49.1763 83.0877 48.6148 84.1619 47.4917C85.2361 46.3687 85.7732 44.9282 85.7732 43.1704C85.7732 41.2905 85.1628 39.8745 83.9421 38.9224C82.7459 37.9702 81.0979 37.4942 78.9983 37.4942H72.8826V49.1763H79.7673ZM118.989 81.586C116.376 81.586 114.045 81.0611 111.994 80.0112C109.968 78.937 108.381 77.4844 107.233 75.6533C106.11 73.8223 105.549 71.7959 105.549 69.5742C105.549 67.2061 106.196 65.1065 107.49 63.2754C108.783 61.4199 110.651 59.9795 113.093 58.9541C115.534 57.9043 118.439 57.3794 121.808 57.3794H129.242V55.4019C129.242 53.8394 128.669 52.6187 127.521 51.7398C126.398 50.8364 124.811 50.3848 122.761 50.3848C121.003 50.3848 119.086 50.6778 117.011 51.2637C114.96 51.8252 113.251 52.5332 111.884 53.3877L108.039 44.6719C109.748 43.6953 112.018 42.8408 114.85 42.1084C117.707 41.376 120.771 41.0098 124.042 41.0098C128.608 41.0098 132.074 41.7422 134.443 43.207C136.835 44.6719 138.398 46.4297 139.13 48.4805C139.863 50.5313 140.229 52.7896 140.229 55.2554V67.1206C140.229 68.4634 140.4 69.4888 140.741 70.1968C141.083 70.8804 141.669 71.3565 142.499 71.625L143.378 71.918L139.313 81.586L137.958 81.1465C136.323 80.6094 134.955 79.938 133.857 79.1323C132.758 78.3267 131.952 77.4478 131.44 76.4956H131.293C130.243 77.9605 128.595 79.1812 126.349 80.1577C124.128 81.1099 121.674 81.586 118.989 81.586ZM116.718 68.8418C116.718 70.0869 117.194 71.0757 118.146 71.8081C119.123 72.5405 120.38 72.9068 121.918 72.9068C122.992 72.9068 124.14 72.7114 125.361 72.3208C126.581 71.9058 127.619 71.271 128.473 70.4165C129.352 69.5376 129.792 68.4268 129.792 67.084V64.6304H123.2C118.879 64.6304 116.718 66.0342 116.718 68.8418ZM159.089 81.586C156.867 81.586 154.963 81.0977 153.376 80.1211C151.813 79.1445 150.629 77.8262 149.823 76.166C149.042 74.4815 148.652 72.6138 148.652 70.563V24.6035H160.224V68.8052C160.224 69.8062 160.419 70.5752 160.81 71.1123C161.225 71.625 161.896 71.8814 162.824 71.8814C163.312 71.8814 163.849 71.7837 164.435 71.5884V80.6704C163.678 80.9634 162.824 81.1831 161.872 81.3296C160.944 81.5005 160.016 81.586 159.089 81.586ZM181.171 81.586C178.559 81.586 176.227 81.0611 174.177 80.0112C172.15 78.937 170.563 77.4844 169.416 75.6533C168.293 73.8223 167.731 71.7959 167.731 69.5742C167.731 67.2061 168.378 65.1065 169.672 63.2754C170.966 61.4199 172.834 59.9795 175.275 58.9541C177.717 57.9043 180.622 57.3794 183.991 57.3794H191.425V55.4019C191.425 53.8394 190.851 52.6187 189.704 51.7398C188.581 50.8364 186.994 50.3848 184.943 50.3848C183.185 50.3848 181.269 50.6778 179.194 51.2637C177.143 51.8252 175.434 52.5332 174.067 53.3877L170.221 44.6719C171.93 43.6953 174.201 42.8408 177.033 42.1084C179.889 41.376 182.953 41.0098 186.225 41.0098C190.79 41.0098 194.257 41.7422 196.625 43.207C199.018 44.6719 200.58 46.4297 201.313 48.4805C202.045 50.5313 202.411 52.7896 202.411 55.2554V67.1206C202.411 68.4634 202.582 69.4888 202.924 70.1968C203.266 70.8804 203.852 71.3565 204.682 71.625L205.561 71.918L201.496 81.586L200.141 81.1465C198.505 80.6094 197.138 79.938 196.039 79.1323C194.941 78.3267 194.135 77.4478 193.622 76.4956H193.476C192.426 77.9605 190.778 79.1812 188.532 80.1577C186.31 81.1099 183.857 81.586 181.171 81.586ZM178.901 68.8418C178.901 70.0869 179.377 71.0757 180.329 71.8081C181.305 72.5405 182.563 72.9068 184.101 72.9068C185.175 72.9068 186.323 72.7114 187.543 72.3208C188.764 71.9058 189.802 71.271 190.656 70.4165C191.535 69.5376 191.974 68.4268 191.974 67.084V64.6304H185.383C181.061 64.6304 178.901 66.0342 178.901 68.8418ZM210.798 41.5957H222.004V46.7593H222.223C223.469 44.9038 225.153 43.4878 227.277 42.5112C229.401 41.5103 231.72 41.0098 234.235 41.0098C236.823 41.0098 239.081 41.6079 241.01 42.8042C242.939 44.0005 244.416 45.6729 245.441 47.8213C246.467 49.9697 246.979 52.4356 246.979 55.2188V81H235.407V57.7456C235.407 55.4019 234.858 53.6319 233.759 52.4356C232.66 51.2393 231.122 50.6411 229.145 50.6411C227.167 50.6411 225.544 51.2759 224.274 52.5454C223.005 53.7905 222.37 55.5606 222.37 57.8555V81H210.798V41.5957ZM273.09 81.4395C269.233 81.4395 265.68 80.5484 262.433 78.7661C259.186 76.9839 256.611 74.5425 254.706 71.4419C252.826 68.3413 251.886 64.9111 251.886 61.1514C251.886 57.4404 252.814 54.0469 254.67 50.9707C256.55 47.8945 259.076 45.4653 262.25 43.6831C265.448 41.9009 268.927 41.0098 272.687 41.0098C274.909 41.0098 277.07 41.3272 279.169 41.9619C281.269 42.5967 283.173 43.4878 284.882 44.6353L280.634 53.937C279.609 52.9849 278.449 52.2647 277.155 51.7764C275.861 51.2637 274.469 51.0073 272.98 51.0073C270.954 51.0073 269.172 51.4712 267.634 52.3989C266.12 53.3023 264.948 54.523 264.118 56.0611C263.312 57.5991 262.909 59.2837 262.909 61.1148C262.909 63.0191 263.337 64.7647 264.191 66.3516C265.07 67.9141 266.266 69.1592 267.78 70.0869C269.318 70.9903 271.027 71.4419 272.907 71.4419C274.445 71.4419 275.947 71.1734 277.411 70.6362C278.876 70.0991 279.999 69.4766 280.781 68.7686L284.919 78.2534C283.405 79.1812 281.611 79.9502 279.535 80.5606C277.485 81.1465 275.336 81.4395 273.09 81.4395ZM307.111 81.586C302.912 81.586 299.238 80.7315 296.088 79.0225C292.939 77.3135 290.51 74.9331 288.801 71.8814C287.092 68.8052 286.237 65.314 286.237 61.4077C286.237 57.3794 287.116 53.8272 288.874 50.751C290.632 47.6504 292.988 45.2578 295.942 43.5733C298.92 41.8887 302.179 41.0464 305.719 41.0464C309.113 41.0464 312.189 41.8277 314.948 43.3902C317.707 44.9282 319.88 47.1011 321.467 49.9087C323.078 52.7163 323.884 55.9146 323.884 59.5034C323.884 61.481 323.688 63.3242 323.298 65.0332H296.784C297.468 67.3037 298.713 69.0982 300.519 70.4165C302.326 71.7349 304.474 72.3941 306.965 72.3941C308.698 72.3941 310.468 72.1133 312.275 71.5518C314.081 70.9903 315.461 70.3311 316.413 69.5742L320.002 78.2168C318.488 79.2422 316.596 80.0601 314.325 80.6704C312.055 81.2808 309.65 81.586 307.111 81.586ZM313.227 57.7822C313.227 56.2197 312.897 54.8648 312.238 53.7173C311.603 52.5454 310.7 51.6543 309.528 51.044C308.381 50.4092 307.062 50.0918 305.573 50.0918C303.229 50.0918 301.264 50.7998 299.677 52.2158C298.115 53.6074 297.077 55.4629 296.564 57.7822H313.227Z" fill="#1E1E1E"/>
</svg>
