<svg width="367" height="109" viewBox="0 0 367 109" fill="none" xmlns="http://www.w3.org/2000/svg">
<path d="M200.996 0.00184557L54.1292 0.00187456C24.3576 0.00187456 6.57588e-05 24.2815 6.57588e-05 53.9578C6.57588e-05 67.7232 5.24564 80.3206 13.8362 89.8781L1.37819 102.936C-0.410721 104.812 0.921969 107.912 3.5192 107.912L312.238 107.912C342.01 107.912 366.367 83.6323 366.367 53.9559C366.367 24.2796 342.01 1.60144e-05 312.238 1.60144e-05L200.996 0.00184557Z" fill="white"/>
<path d="M55.8926 27.0857H73.9102C77.7188 27.0857 81.0025 27.6838 83.7613 28.8801C86.5445 30.052 88.6685 31.6755 90.1334 33.7507C91.5982 35.8259 92.3306 38.1819 92.3306 40.8186C92.3306 43.1135 91.8057 45.2864 90.7559 47.3371C89.7061 49.3879 88.3145 51.0969 86.5811 52.4641C89.6085 53.4651 92.0255 55.0276 93.8321 57.1516C95.6387 59.2512 96.5421 61.9856 96.5421 65.3547C96.5421 68.4309 95.773 71.1653 94.2349 73.5578C92.7213 75.926 90.5972 77.7693 87.8629 79.0876C85.1529 80.406 82.0645 81.0652 78.5977 81.0652H55.8926V27.0857ZM77.9752 70.5915C79.9527 70.5915 81.564 70.0178 82.8091 68.8703C84.0543 67.7229 84.6768 66.1726 84.6768 64.2195C84.6768 62.3884 84.0054 60.9358 82.6627 59.8616C81.3443 58.7873 79.5987 58.2502 77.4258 58.2502H67.8677V70.5915H77.9752ZM74.7525 49.2414C76.608 49.2414 78.0728 48.6799 79.147 47.5569C80.2213 46.4338 80.7584 44.9934 80.7584 43.2356C80.7584 41.3557 80.148 39.9397 78.9273 38.9875C77.731 38.0354 76.0831 37.5593 73.9835 37.5593H67.8677V49.2414H74.7525ZM113.974 81.6511C111.361 81.6511 109.03 81.1262 106.979 80.0764C104.953 79.0022 103.366 77.5495 102.218 75.7185C101.095 73.8874 100.534 71.8611 100.534 69.6394C100.534 67.2712 101.181 65.1716 102.475 63.3406C103.769 61.4851 105.636 60.0447 108.078 59.0193C110.519 57.9695 113.424 57.4446 116.794 57.4446H124.228V55.467C124.228 53.9045 123.654 52.6838 122.506 51.8049C121.383 50.9016 119.796 50.4499 117.746 50.4499C115.988 50.4499 114.071 50.7429 111.996 51.3288C109.945 51.8904 108.236 52.5984 106.869 53.4529L103.024 44.737C104.733 43.7605 107.003 42.906 109.836 42.1736C112.692 41.4411 115.756 41.0749 119.027 41.0749C123.593 41.0749 127.06 41.8074 129.428 43.2722C131.82 44.737 133.383 46.4949 134.115 48.5456C134.848 50.5964 135.214 52.8547 135.214 55.3205V67.1858C135.214 68.5285 135.385 69.5539 135.727 70.2619C136.068 70.9455 136.654 71.4216 137.484 71.6902L138.363 71.9831L134.298 81.6511L132.943 81.2117C131.308 80.6745 129.94 80.0032 128.842 79.1975C127.743 78.3918 126.938 77.5129 126.425 76.5608H126.278C125.229 78.0256 123.581 79.2463 121.335 80.2229C119.113 81.175 116.659 81.6511 113.974 81.6511ZM111.703 68.907C111.703 70.1521 112.179 71.1409 113.131 71.8733C114.108 72.6057 115.365 72.9719 116.903 72.9719C117.978 72.9719 119.125 72.7766 120.346 72.386C121.566 71.9709 122.604 71.3362 123.459 70.4817C124.337 69.6028 124.777 68.4919 124.777 67.1492V64.6955H118.185C113.864 64.6955 111.703 66.0994 111.703 68.907ZM154.074 81.6511C151.852 81.6511 149.948 81.1628 148.361 80.1863C146.798 79.2097 145.614 77.8913 144.809 76.2312C144.027 74.5466 143.637 72.6789 143.637 70.6282V24.6687H155.209V68.8703C155.209 69.8713 155.404 70.6404 155.795 71.1775C156.21 71.6902 156.881 71.9465 157.809 71.9465C158.297 71.9465 158.835 71.8489 159.42 71.6535V80.7356C158.664 81.0285 157.809 81.2483 156.857 81.3948C155.929 81.5657 155.002 81.6511 154.074 81.6511ZM176.156 81.6511C173.544 81.6511 171.212 81.1262 169.162 80.0764C167.135 79.0022 165.548 77.5495 164.401 75.7185C163.278 73.8874 162.716 71.8611 162.716 69.6394C162.716 67.2712 163.363 65.1716 164.657 63.3406C165.951 61.4851 167.819 60.0447 170.26 59.0193C172.702 57.9695 175.607 57.4446 178.976 57.4446H186.41V55.467C186.41 53.9045 185.836 52.6838 184.689 51.8049C183.566 50.9016 181.979 50.4499 179.928 50.4499C178.17 50.4499 176.254 50.7429 174.179 51.3288C172.128 51.8904 170.419 52.5984 169.052 53.4529L165.207 44.737C166.916 43.7605 169.186 42.906 172.018 42.1736C174.875 41.4411 177.939 41.0749 181.21 41.0749C185.775 41.0749 189.242 41.8074 191.61 43.2722C194.003 44.737 195.565 46.4949 196.298 48.5456C197.03 50.5964 197.397 52.8547 197.397 55.3205V67.1858C197.397 68.5285 197.567 69.5539 197.909 70.2619C198.251 70.9455 198.837 71.4216 199.667 71.6902L200.546 71.9831L196.481 81.6511L195.126 81.2117C193.49 80.6745 192.123 80.0032 191.024 79.1975C189.926 78.3918 189.12 77.5129 188.607 76.5608H188.461C187.411 78.0256 185.763 79.2463 183.517 80.2229C181.295 81.175 178.842 81.6511 176.156 81.6511ZM173.886 68.907C173.886 70.1521 174.362 71.1409 175.314 71.8733C176.291 72.6057 177.548 72.9719 179.086 72.9719C180.16 72.9719 181.308 72.7766 182.528 72.386C183.749 71.9709 184.787 71.3362 185.641 70.4817C186.52 69.6028 186.96 68.4919 186.96 67.1492V64.6955H180.368C176.046 64.6955 173.886 66.0994 173.886 68.907ZM205.783 41.6609H216.989V46.8244H217.209C218.454 44.969 220.138 43.553 222.262 42.5764C224.386 41.5754 226.706 41.0749 229.22 41.0749C231.808 41.0749 234.066 41.6731 235.995 42.8694C237.924 44.0657 239.401 45.738 240.426 47.8865C241.452 50.0349 241.964 52.5007 241.964 55.2839V81.0652H230.392V57.8108C230.392 55.467 229.843 53.697 228.744 52.5007C227.646 51.3044 226.107 50.7063 224.13 50.7063C222.152 50.7063 220.529 51.341 219.259 52.6106C217.99 53.8557 217.355 55.6257 217.355 57.9206V81.0652H205.783V41.6609ZM268.075 81.5046C264.218 81.5046 260.666 80.6135 257.419 78.8313C254.171 77.0491 251.596 74.6077 249.691 71.5071C247.812 68.4065 246.872 64.9763 246.872 61.2165C246.872 57.5056 247.799 54.112 249.655 51.0359C251.535 47.9597 254.062 45.5305 257.235 43.7483C260.434 41.966 263.913 41.0749 267.672 41.0749C269.894 41.0749 272.055 41.3923 274.154 42.0271C276.254 42.6619 278.158 43.553 279.867 44.7004L275.619 54.0022C274.594 53.05 273.434 52.3298 272.14 51.8415C270.846 51.3288 269.455 51.0725 267.965 51.0725C265.939 51.0725 264.157 51.5364 262.619 52.4641C261.105 53.3674 259.933 54.5881 259.103 56.1262C258.297 57.6643 257.895 59.3489 257.895 61.1799C257.895 63.0842 258.322 64.8298 259.176 66.4167C260.055 67.9792 261.252 69.2244 262.765 70.1521C264.303 71.0554 266.012 71.5071 267.892 71.5071C269.43 71.5071 270.932 71.2385 272.397 70.7014C273.861 70.1643 274.984 69.5417 275.766 68.8337L279.904 78.3186C278.39 79.2463 276.596 80.0154 274.521 80.6257C272.47 81.2117 270.321 81.5046 268.075 81.5046ZM302.096 81.6511C297.897 81.6511 294.223 80.7966 291.073 79.0876C287.924 77.3786 285.495 74.9983 283.786 71.9465C282.077 68.8703 281.222 65.3791 281.222 61.4729C281.222 57.4446 282.101 53.8923 283.859 50.8161C285.617 47.7156 287.973 45.323 290.927 43.6384C293.905 41.9538 297.165 41.1116 300.705 41.1116C304.098 41.1116 307.174 41.8928 309.933 43.4553C312.692 44.9934 314.865 47.1662 316.452 49.9739C318.063 52.7815 318.869 55.9797 318.869 59.5686C318.869 61.5461 318.673 63.3894 318.283 65.0984H291.769C292.453 67.3689 293.698 69.1633 295.504 70.4817C297.311 71.8 299.46 72.4592 301.95 72.4592C303.683 72.4592 305.453 72.1785 307.26 71.6169C309.066 71.0554 310.446 70.3962 311.398 69.6394L314.987 78.282C313.473 79.3074 311.581 80.1252 309.311 80.7356C307.04 81.3459 304.635 81.6511 302.096 81.6511ZM308.212 57.8474C308.212 56.2849 307.882 54.9299 307.223 53.7825C306.588 52.6106 305.685 51.7195 304.513 51.1091C303.366 50.4744 302.047 50.157 300.558 50.157C298.214 50.157 296.249 50.865 294.662 52.281C293.1 53.6726 292.062 55.5281 291.549 57.8474H308.212Z" fill="#1E1E1E"/>
</svg>
