<svg width="485" height="109" viewBox="0 0 485 109" fill="none" xmlns="http://www.w3.org/2000/svg">
<path d="M42.3122 0.00195746H430.315C460.087 0.00195746 484.444 24.2816 484.444 53.9579C484.444 67.7233 479.199 80.3207 470.608 89.8782L483.066 102.936C484.855 104.812 483.522 107.912 480.925 107.912L54.1292 107.912C24.3575 107.912 4.72442e-06 83.6323 4.72442e-06 53.9559C4.72442e-06 24.2796 24.3575 2.11757e-05 54.1292 2.11757e-05L42.3122 0.00195746Z" fill="white"/>
<path d="M80.5518 81.6682C75.2295 81.6682 70.3223 80.4597 65.8301 78.0427C61.3379 75.6257 57.7734 72.3054 55.1367 68.0817C52.5244 63.8581 51.2183 59.1584 51.2183 53.9826C51.2183 48.8313 52.5122 44.156 55.1001 39.9567C57.7124 35.7575 61.228 32.4738 65.647 30.1057C70.0903 27.7131 74.9365 26.5168 80.1856 26.5168C83.042 26.5168 85.8862 26.8952 88.7183 27.6521C91.5503 28.3845 94.1626 29.4953 96.5552 30.9846L92.0142 41.6779C90.6958 40.384 88.999 39.3586 86.9238 38.6018C84.8486 37.8449 82.6514 37.4665 80.332 37.4665C77.3291 37.4665 74.5093 38.1623 71.8726 39.5539C69.2358 40.9455 67.124 42.8986 65.5371 45.4133C63.9746 47.9279 63.1934 50.7844 63.1934 53.9826C63.1934 57.1565 63.9746 60.0251 65.5371 62.5886C67.0996 65.1276 69.2114 67.1174 71.8726 68.5578C74.5581 69.9983 77.4878 70.7185 80.6616 70.7185C82.8345 70.7185 84.9829 70.3767 87.1069 69.6931C89.231 68.9851 90.9155 67.9719 92.1606 66.6535L96.7017 77.3103C94.3823 78.7507 91.8066 79.8371 88.9746 80.5695C86.167 81.302 83.3594 81.6682 80.5518 81.6682ZM119.81 81.6682C116.05 81.6682 112.595 80.8015 109.446 79.0681C106.321 77.3347 103.843 74.9177 102.012 71.8171C100.181 68.7165 99.2651 65.2253 99.2651 61.3435C99.2651 57.4616 100.181 53.9826 102.012 50.9065C103.843 47.8059 106.321 45.4011 109.446 43.6921C112.595 41.9587 116.05 41.092 119.81 41.092C123.643 41.092 127.122 41.9587 130.247 43.6921C133.372 45.4011 135.837 47.7937 137.644 50.8698C139.451 53.946 140.354 57.4372 140.354 61.3435C140.354 65.2497 139.451 68.7531 137.644 71.8537C135.837 74.9299 133.359 77.3347 130.21 79.0681C127.085 80.8015 123.618 81.6682 119.81 81.6682ZM119.81 71.7805C121.616 71.7805 123.24 71.341 124.68 70.4621C126.121 69.5832 127.256 68.3503 128.086 66.7634C128.916 65.1765 129.331 63.3698 129.331 61.3435C129.331 59.3659 128.928 57.5959 128.123 56.0334C127.317 54.4465 126.194 53.2136 124.753 52.3347C123.337 51.4314 121.714 50.9797 119.883 50.9797C118.076 50.9797 116.44 51.4191 114.976 52.2981C113.511 53.177 112.363 54.4099 111.533 55.9968C110.703 57.5593 110.288 59.3415 110.288 61.3435C110.288 63.3698 110.703 65.1765 111.533 66.7634C112.363 68.3503 113.499 69.5832 114.939 70.4621C116.404 71.341 118.027 71.7805 119.81 71.7805ZM145.847 41.6779H157.053V46.8415H157.273C158.518 44.986 160.203 43.57 162.327 42.5935C164.451 41.5925 166.77 41.092 169.285 41.092C171.873 41.092 174.131 41.6901 176.06 42.8864C177.988 44.0827 179.465 45.7551 180.491 47.9035C181.516 50.052 182.029 52.5178 182.029 55.301V81.0822H170.457V57.8278C170.457 55.4841 169.907 53.7141 168.809 52.5178C167.71 51.3215 166.172 50.7233 164.194 50.7233C162.217 50.7233 160.593 51.3581 159.324 52.6276C158.054 53.8728 157.419 55.6428 157.419 57.9377V81.0822H145.847V41.6779ZM185.325 41.6779H192.429V37.9792C192.429 33.5358 193.65 30.0324 196.091 27.469C198.557 24.8811 202.244 23.5871 207.151 23.5871C208.616 23.5871 210.093 23.697 211.582 23.9167C213.071 24.1364 214.28 24.4416 215.208 24.8322L211.399 34.2072C210.349 33.841 209.348 33.6579 208.396 33.6579C207.053 33.6579 205.967 34.0608 205.137 34.8664C204.331 35.6477 203.928 36.8317 203.928 38.4187V41.6779H213.486V51.2727H203.928V81.0822H192.429V51.2727H185.325V41.6779ZM219.456 41.6779H231.028V81.0822H219.456V41.6779ZM225.278 37.1369C223.96 37.1369 222.764 36.8195 221.689 36.1848C220.615 35.55 219.761 34.6955 219.126 33.6213C218.516 32.5471 218.21 31.363 218.21 30.0691C218.21 28.7507 218.516 27.5544 219.126 26.4802C219.761 25.406 220.615 24.5637 221.689 23.9533C222.764 23.343 223.96 23.0378 225.278 23.0378C226.572 23.0378 227.756 23.3552 228.831 23.99C229.905 24.6003 230.747 25.4426 231.357 26.5168C231.992 27.5666 232.31 28.7507 232.31 30.0691C232.31 31.363 231.992 32.5471 231.357 33.6213C230.747 34.6955 229.905 35.55 228.831 36.1848C227.756 36.8195 226.572 37.1369 225.278 37.1369ZM274.79 81.6682C272.3 80.8869 270.322 79.9958 268.857 78.9948C267.393 77.9939 266.416 76.8586 265.928 75.5891H265.562C263.95 77.4934 262.07 78.9826 259.922 80.0568C257.798 81.1311 255.515 81.6682 253.074 81.6682C250.144 81.6682 247.349 80.9113 244.688 79.3977C242.051 77.884 239.915 75.6013 238.279 72.5495C236.643 69.4978 235.85 65.8112 235.898 61.49C235.85 57.1931 236.643 53.4943 238.279 50.3938C239.915 47.2932 242.075 44.9616 244.761 43.3991C247.471 41.8122 250.352 41.0188 253.403 41.0188C255.405 41.0188 257.285 41.3606 259.043 42.0441C260.801 42.7033 262.4 43.6555 263.84 44.9006H264.133V24.6858H275.706V67.4592C275.706 68.4113 275.803 69.1682 275.999 69.7297C276.218 70.2668 276.548 70.7063 276.987 71.0481C277.427 71.3899 278.049 71.7072 278.855 72.0002L274.79 81.6682ZM255.784 72.0002C257.468 71.9758 258.97 71.5241 260.288 70.6452C261.631 69.7419 262.681 68.4846 263.438 66.8733C264.219 65.2619 264.609 63.3942 264.609 61.2702C264.609 59.0974 264.231 57.2175 263.474 55.6306C262.742 54.0437 261.716 52.8352 260.398 52.0051C259.104 51.1506 257.639 50.7356 256.003 50.76C254.27 50.7356 252.732 51.1506 251.389 52.0051C250.046 52.8352 248.997 54.0559 248.24 55.6672C247.507 57.2541 247.153 59.1218 247.178 61.2702C247.153 63.3942 247.495 65.2619 248.203 66.8733C248.936 68.4846 249.961 69.7419 251.279 70.6452C252.598 71.5241 254.099 71.9758 255.784 72.0002ZM303.171 81.6682C298.972 81.6682 295.298 80.8137 292.148 79.1047C288.999 77.3957 286.57 75.0153 284.861 71.9636C283.152 68.8874 282.297 65.3962 282.297 61.49C282.297 57.4616 283.176 53.9094 284.934 50.8332C286.692 47.7326 289.048 45.34 292.002 43.6555C294.98 41.9709 298.24 41.1286 301.78 41.1286C305.173 41.1286 308.25 41.9099 311.008 43.4724C313.767 45.0105 315.94 47.1833 317.527 49.9909C319.138 52.7985 319.944 55.9968 319.944 59.5857C319.944 61.5632 319.749 63.4065 319.358 65.1154H292.844C293.528 67.3859 294.773 69.1804 296.58 70.4987C298.386 71.8171 300.535 72.4763 303.025 72.4763C304.758 72.4763 306.528 72.1955 308.335 71.634C310.142 71.0725 311.521 70.4133 312.473 69.6565L316.062 78.299C314.548 79.3244 312.656 80.1423 310.386 80.7526C308.115 81.363 305.71 81.6682 303.171 81.6682ZM309.287 57.8645C309.287 56.302 308.958 54.947 308.298 53.7995C307.664 52.6276 306.76 51.7365 305.588 51.1262C304.441 50.4914 303.123 50.174 301.633 50.174C299.29 50.174 297.324 50.882 295.737 52.2981C294.175 53.6897 293.137 55.5451 292.625 57.8645H309.287ZM325.51 41.6779H336.716V46.8415H336.936C338.181 44.986 339.866 43.57 341.99 42.5935C344.114 41.5925 346.433 41.092 348.948 41.092C351.536 41.092 353.794 41.6901 355.723 42.8864C357.651 44.0827 359.128 45.7551 360.154 47.9035C361.179 50.052 361.692 52.5178 361.692 55.301V81.0822H350.12V57.8278C350.12 55.4841 349.57 53.7141 348.472 52.5178C347.373 51.3215 345.835 50.7233 343.857 50.7233C341.88 50.7233 340.256 51.3581 338.987 52.6276C337.717 53.8728 337.083 55.6428 337.083 57.9377V81.0822H325.51V41.6779ZM387.803 81.5217C383.945 81.5217 380.393 80.6306 377.146 78.8483C373.899 77.0661 371.323 74.6247 369.419 71.5241C367.539 68.4235 366.599 64.9934 366.599 61.2336C366.599 57.5227 367.527 54.1291 369.382 51.0529C371.262 47.9768 373.789 45.5476 376.963 43.7653C380.161 41.9831 383.64 41.092 387.4 41.092C389.622 41.092 391.782 41.4094 393.882 42.0441C395.981 42.6789 397.886 43.57 399.595 44.7175L395.347 54.0192C394.321 53.0671 393.162 52.3469 391.868 51.8586C390.574 51.3459 389.182 51.0896 387.693 51.0896C385.667 51.0896 383.884 51.5534 382.346 52.4812C380.833 53.3845 379.661 54.6052 378.831 56.1433C378.025 57.6814 377.622 59.3659 377.622 61.197C377.622 63.1013 378.049 64.8469 378.904 66.4338C379.783 67.9963 380.979 69.2414 382.493 70.1691C384.031 71.0725 385.74 71.5241 387.62 71.5241C389.158 71.5241 390.659 71.2556 392.124 70.7185C393.589 70.1814 394.712 69.5588 395.493 68.8508L399.631 78.3357C398.118 79.2634 396.323 80.0324 394.248 80.6428C392.197 81.2287 390.049 81.5217 387.803 81.5217ZM421.824 81.6682C417.625 81.6682 413.95 80.8137 410.801 79.1047C407.651 77.3957 405.222 75.0153 403.513 71.9636C401.804 68.8874 400.95 65.3962 400.95 61.49C400.95 57.4616 401.829 53.9094 403.586 50.8332C405.344 47.7326 407.7 45.34 410.654 43.6555C413.633 41.9709 416.892 41.1286 420.432 41.1286C423.826 41.1286 426.902 41.9099 429.661 43.4724C432.419 45.0105 434.592 47.1833 436.179 49.9909C437.791 52.7985 438.596 55.9968 438.596 59.5857C438.596 61.5632 438.401 63.4065 438.01 65.1154H411.497C412.18 67.3859 413.425 69.1804 415.232 70.4987C417.039 71.8171 419.187 72.4763 421.677 72.4763C423.411 72.4763 425.181 72.1955 426.987 71.634C428.794 71.0725 430.173 70.4133 431.125 69.6565L434.714 78.299C433.201 79.3244 431.309 80.1423 429.038 80.7526C426.768 81.363 424.363 81.6682 421.824 81.6682ZM427.939 57.8645C427.939 56.302 427.61 54.947 426.951 53.7995C426.316 52.6276 425.413 51.7365 424.241 51.1262C423.093 50.4914 421.775 50.174 420.286 50.174C417.942 50.174 415.977 50.882 414.39 52.2981C412.827 53.6897 411.79 55.5451 411.277 57.8645H427.939Z" fill="#1E1E1E"/>
</svg>
