<svg width="501" height="108" viewBox="0 0 501 108" fill="none" xmlns="http://www.w3.org/2000/svg">
<path d="M446.371 0.00191206L54.1292 0.00169521C24.3576 0.00169521 4.72083e-06 24.2812 4.72083e-06 53.9575C4.72083e-06 67.723 5.24558 80.321 13.8361 89.8784L1.37813 102.936C-0.410782 104.812 0.921909 107.912 3.51914 107.912L446.371 107.912C476.143 107.912 500.5 83.6323 500.5 53.956C500.5 24.2796 476.143 2.50936e-05 446.371 2.50936e-05V0.00191206Z" fill="#FF4500"/>
<path d="M86.9817 81.586C81.6594 81.586 76.7522 80.3775 72.26 77.9605C67.7678 75.5435 64.2034 72.2232 61.5667 67.9995C58.9544 63.7759 57.6482 59.0762 57.6482 53.9004C57.6482 48.749 58.9421 44.0738 61.53 39.8745C64.1423 35.6753 67.658 32.3916 72.0769 30.0235C76.5203 27.6309 81.3665 26.4346 86.6155 26.4346C89.4719 26.4346 92.3162 26.813 95.1482 27.5698C97.9802 28.3023 100.593 29.4131 102.985 30.9024L98.4441 41.5957C97.1257 40.3018 95.429 39.2764 93.3538 38.5196C91.2786 37.7627 89.0813 37.3843 86.762 37.3843C83.759 37.3843 80.9392 38.0801 78.3025 39.4717C75.6658 40.8633 73.554 42.8164 71.967 45.3311C70.4045 47.8457 69.6233 50.7022 69.6233 53.9004C69.6233 57.0742 70.4045 59.9429 71.967 62.5064C73.5295 65.0454 75.6414 67.0352 78.3025 68.4756C80.988 69.916 83.9177 70.6363 87.0916 70.6363C89.2644 70.6363 91.4128 70.2945 93.5369 69.6109C95.6609 68.9029 97.3455 67.8897 98.5906 66.5713L103.132 77.228C100.812 78.6685 98.2366 79.7549 95.4045 80.4873C92.5969 81.2197 89.7893 81.586 86.9817 81.586ZM126.24 81.586C122.48 81.586 119.025 80.7193 115.876 78.9859C112.751 77.2525 110.273 74.8355 108.442 71.7349C106.611 68.6343 105.695 65.1431 105.695 61.2613C105.695 57.3794 106.611 53.9004 108.442 50.8242C110.273 47.7237 112.751 45.3189 115.876 43.6099C119.025 41.8765 122.48 41.0098 126.24 41.0098C130.073 41.0098 133.552 41.8765 136.677 43.6099C139.802 45.3189 142.267 47.7114 144.074 50.7876C145.881 53.8638 146.784 57.355 146.784 61.2613C146.784 65.1675 145.881 68.6709 144.074 71.7715C142.267 74.8477 139.789 77.2525 136.64 78.9859C133.515 80.7193 130.048 81.586 126.24 81.586ZM126.24 71.6983C128.046 71.6983 129.67 71.2588 131.11 70.3799C132.551 69.501 133.686 68.2681 134.516 66.6812C135.346 65.0943 135.761 63.2876 135.761 61.2613C135.761 59.2837 135.358 57.5137 134.552 55.9512C133.747 54.3643 132.624 53.1314 131.183 52.2525C129.767 51.3491 128.144 50.8975 126.313 50.8975C124.506 50.8975 122.87 51.3369 121.406 52.2158C119.941 53.0947 118.793 54.3277 117.963 55.9146C117.133 57.4771 116.718 59.2593 116.718 61.2613C116.718 63.2876 117.133 65.0943 117.963 66.6812C118.793 68.2681 119.928 69.501 121.369 70.3799C122.834 71.2588 124.457 71.6983 126.24 71.6983ZM152.277 41.5957H163.483V46.7593H163.703C164.948 44.9038 166.633 43.4878 168.757 42.5113C170.881 41.5103 173.2 41.0098 175.715 41.0098C178.302 41.0098 180.561 41.6079 182.49 42.8042C184.418 44.0005 185.895 45.6729 186.921 47.8213C187.946 49.9697 188.459 52.4356 188.459 55.2188V81H176.886V57.7456C176.886 55.4019 176.337 53.6319 175.239 52.4356C174.14 51.2393 172.602 50.6411 170.624 50.6411C168.647 50.6411 167.023 51.2759 165.754 52.5454C164.484 53.7905 163.849 55.5606 163.849 57.8555V81H152.277V41.5957ZM191.755 41.5957H198.859V37.897C198.859 33.4536 200.08 29.9502 202.521 27.3867C204.987 24.7989 208.674 23.5049 213.581 23.5049C215.046 23.5049 216.523 23.6148 218.012 23.8345C219.501 24.0542 220.71 24.3594 221.637 24.75L217.829 34.125C216.779 33.7588 215.778 33.5757 214.826 33.5757C213.483 33.5757 212.397 33.9785 211.567 34.7842C210.761 35.5655 210.358 36.7495 210.358 38.3364V41.5957H219.916V51.1905H210.358V81H198.859V51.1905H191.755V41.5957ZM225.886 41.5957H237.458V81H225.886V41.5957ZM231.708 37.0547C230.39 37.0547 229.194 36.7373 228.119 36.1026C227.045 35.4678 226.191 34.6133 225.556 33.5391C224.946 32.4649 224.64 31.2808 224.64 29.9868C224.64 28.6685 224.946 27.4722 225.556 26.398C226.191 25.3238 227.045 24.4815 228.119 23.8711C229.194 23.2608 230.39 22.9556 231.708 22.9556C233.002 22.9556 234.186 23.273 235.261 23.9077C236.335 24.5181 237.177 25.3604 237.787 26.4346C238.422 27.4844 238.74 28.6685 238.74 29.9868C238.74 31.2808 238.422 32.4649 237.787 33.5391C237.177 34.6133 236.335 35.4678 235.261 36.1026C234.186 36.7373 233.002 37.0547 231.708 37.0547ZM281.22 81.586C278.73 80.8047 276.752 79.9136 275.287 78.9126C273.823 77.9116 272.846 76.7764 272.358 75.5069H271.991C270.38 77.4112 268.5 78.9004 266.352 79.9746C264.228 81.0489 261.945 81.586 259.504 81.586C256.574 81.586 253.779 80.8291 251.117 79.3155C248.481 77.8018 246.344 75.5191 244.709 72.4673C243.073 69.4155 242.28 65.729 242.328 61.4077C242.28 57.1109 243.073 53.4121 244.709 50.3115C246.344 47.211 248.505 44.8794 251.191 43.3169C253.901 41.73 256.781 40.9365 259.833 40.9365C261.835 40.9365 263.715 41.2783 265.473 41.9619C267.231 42.6211 268.83 43.5733 270.27 44.8184H270.563V24.6035H282.136V67.377C282.136 68.3291 282.233 69.086 282.428 69.6475C282.648 70.1846 282.978 70.624 283.417 70.9658C283.857 71.3076 284.479 71.625 285.285 71.918L281.22 81.586ZM262.214 71.918C263.898 71.8936 265.4 71.4419 266.718 70.563C268.061 69.6597 269.111 68.4024 269.867 66.791C270.649 65.1797 271.039 63.312 271.039 61.188C271.039 59.0152 270.661 57.1353 269.904 55.5484C269.172 53.9614 268.146 52.753 266.828 51.9229C265.534 51.0684 264.069 50.6533 262.433 50.6778C260.7 50.6533 259.162 51.0684 257.819 51.9229C256.476 52.753 255.427 53.9737 254.67 55.585C253.937 57.1719 253.583 59.0396 253.608 61.188C253.583 63.312 253.925 65.1797 254.633 66.791C255.365 68.4024 256.391 69.6597 257.709 70.563C259.028 71.4419 260.529 71.8936 262.214 71.918ZM309.601 81.586C305.402 81.586 301.728 80.7315 298.578 79.0225C295.429 77.3135 293 74.9331 291.291 71.8814C289.582 68.8052 288.727 65.314 288.727 61.4077C288.727 57.3794 289.606 53.8272 291.364 50.751C293.122 47.6504 295.478 45.2578 298.432 43.5733C301.41 41.8887 304.67 41.0464 308.21 41.0464C311.603 41.0464 314.679 41.8277 317.438 43.3902C320.197 44.9282 322.37 47.1011 323.957 49.9087C325.568 52.7163 326.374 55.9146 326.374 59.5034C326.374 61.481 326.178 63.3242 325.788 65.0332H299.274C299.958 67.3037 301.203 69.0982 303.01 70.4165C304.816 71.7349 306.965 72.3941 309.455 72.3941C311.188 72.3941 312.958 72.1133 314.765 71.5518C316.572 70.9903 317.951 70.3311 318.903 69.5742L322.492 78.2168C320.978 79.2422 319.086 80.0601 316.816 80.6704C314.545 81.2808 312.14 81.586 309.601 81.586ZM315.717 57.7822C315.717 56.2197 315.387 54.8648 314.728 53.7173C314.094 52.5454 313.19 51.6543 312.018 51.044C310.871 50.4092 309.552 50.0918 308.063 50.0918C305.719 50.0918 303.754 50.7998 302.167 52.2158C300.605 53.6074 299.567 55.4629 299.054 57.7822H315.717ZM331.94 41.5957H343.146V46.7593H343.366C344.611 44.9038 346.296 43.4878 348.42 42.5113C350.544 41.5103 352.863 41.0098 355.378 41.0098C357.966 41.0098 360.224 41.6079 362.153 42.8042C364.081 44.0005 365.558 45.6729 366.584 47.8213C367.609 49.9697 368.122 52.4356 368.122 55.2188V81H356.55V57.7456C356.55 55.4019 356 53.6319 354.902 52.4356C353.803 51.2393 352.265 50.6411 350.287 50.6411C348.31 50.6411 346.686 51.2759 345.417 52.5454C344.147 53.7905 343.512 55.5606 343.512 57.8555V81H331.94V41.5957ZM394.233 81.4395C390.375 81.4395 386.823 80.5484 383.576 78.7661C380.329 76.9839 377.753 74.5425 375.849 71.4419C373.969 68.3413 373.029 64.9112 373.029 61.1514C373.029 57.4405 373.957 54.0469 375.812 50.9707C377.692 47.8946 380.219 45.4654 383.393 43.6831C386.591 41.9009 390.07 41.0098 393.83 41.0098C396.052 41.0098 398.212 41.3272 400.312 41.9619C402.411 42.5967 404.316 43.4878 406.025 44.6353L401.777 53.937C400.751 52.9849 399.592 52.2647 398.298 51.7764C397.004 51.2637 395.612 51.0073 394.123 51.0073C392.096 51.0073 390.314 51.4712 388.776 52.3989C387.262 53.3023 386.091 54.523 385.261 56.0611C384.455 57.5991 384.052 59.2837 384.052 61.1148C384.052 63.0191 384.479 64.7647 385.334 66.3516C386.213 67.9141 387.409 69.1592 388.923 70.0869C390.461 70.9903 392.17 71.4419 394.05 71.4419C395.588 71.4419 397.089 71.1734 398.554 70.6363C400.019 70.0991 401.142 69.4766 401.923 68.7686L406.061 78.2534C404.548 79.1812 402.753 79.9502 400.678 80.5606C398.627 81.1465 396.479 81.4395 394.233 81.4395ZM428.254 81.586C424.054 81.586 420.38 80.7315 417.231 79.0225C414.081 77.3135 411.652 74.9331 409.943 71.8814C408.234 68.8052 407.38 65.314 407.38 61.4077C407.38 57.3794 408.259 53.8272 410.016 50.751C411.774 47.6504 414.13 45.2578 417.084 43.5733C420.063 41.8887 423.322 41.0464 426.862 41.0464C430.256 41.0464 433.332 41.8277 436.091 43.3902C438.849 44.9282 441.022 47.1011 442.609 49.9087C444.22 52.7163 445.026 55.9146 445.026 59.5034C445.026 61.481 444.831 63.3242 444.44 65.0332H417.927C418.61 67.3037 419.855 69.0982 421.662 70.4165C423.469 71.7349 425.617 72.3941 428.107 72.3941C429.841 72.3941 431.611 72.1133 433.417 71.5518C435.224 70.9903 436.603 70.3311 437.555 69.5742L441.144 78.2168C439.631 79.2422 437.739 80.0601 435.468 80.6704C433.198 81.2808 430.793 81.586 428.254 81.586ZM434.369 57.7822C434.369 56.2197 434.04 54.8648 433.381 53.7173C432.746 52.5454 431.843 51.6543 430.671 51.044C429.523 50.4092 428.205 50.0918 426.716 50.0918C424.372 50.0918 422.406 50.7998 420.82 52.2158C419.257 53.6074 418.219 55.4629 417.707 57.7822H434.369Z" fill="#1E1E1E"/>
</svg>
