<svg width="453" height="108" viewBox="0 0 453 108" fill="none" xmlns="http://www.w3.org/2000/svg">
<path d="M398 0.00190995L54.1293 0.00148728C24.3576 0.00148728 6.5756e-05 24.281 6.5756e-05 53.9573C6.5756e-05 67.7228 5.24564 80.3207 13.8362 89.8782L1.37819 102.936C-0.410721 104.812 0.92197 107.912 3.5192 107.912L398 107.912C427.772 107.912 452.13 83.6323 452.13 53.9559C452.13 24.2796 427.772 2.29792e-05 398 2.29792e-05V0.00190995Z" fill="#FF4500"/>
<path d="M86.9815 81.586C81.6592 81.586 76.752 80.3775 72.2598 77.9605C67.7676 75.5435 64.2032 72.2232 61.5665 67.9995C58.9542 63.7759 57.648 59.0762 57.648 53.9004C57.648 48.749 58.942 44.0738 61.5299 39.8745C64.1422 35.6753 67.6578 32.3916 72.0767 30.0235C76.5201 27.6309 81.3663 26.4346 86.6153 26.4346C89.4717 26.4346 92.316 26.813 95.148 27.5698C97.98 28.3023 100.592 29.4131 102.985 30.9024L98.4439 41.5957C97.1256 40.3018 95.4288 39.2764 93.3536 38.5196C91.2784 37.7627 89.0811 37.3843 86.7618 37.3843C83.7589 37.3843 80.939 38.0801 78.3023 39.4717C75.6656 40.8633 73.5538 42.8164 71.9669 45.3311C70.4044 47.8457 69.6231 50.7022 69.6231 53.9004C69.6231 57.0742 70.4044 59.9429 71.9669 62.5064C73.5294 65.0454 75.6412 67.0352 78.3023 68.4756C80.9879 69.916 83.9175 70.6363 87.0914 70.6363C89.2642 70.6363 91.4127 70.2945 93.5367 69.6109C95.6607 68.9029 97.3453 67.8897 98.5904 66.5713L103.131 77.228C100.812 78.6685 98.2364 79.7549 95.4044 80.4873C92.5967 81.2197 89.7891 81.586 86.9815 81.586ZM108.441 41.5957H119.684V47.1255H119.904C121.222 45.3677 122.882 43.9151 124.884 42.7676C126.886 41.5957 129.193 41.0098 131.806 41.0098C132.758 41.0098 133.649 41.0952 134.479 41.2661C135.309 41.4126 135.907 41.5957 136.274 41.8154L131.623 52.875C131.305 52.7285 130.841 52.5943 130.231 52.4722C129.621 52.3257 128.961 52.2525 128.253 52.2525C126.96 52.2525 125.678 52.5698 124.408 53.2046C123.139 53.8394 122.089 54.8037 121.259 56.0977C120.429 57.3672 120.014 58.9175 120.014 60.7486V81H108.441V41.5957ZM156.745 81.586C152.545 81.586 148.871 80.7315 145.722 79.0225C142.572 77.3135 140.143 74.9331 138.434 71.8814C136.725 68.8052 135.871 65.314 135.871 61.4077C135.871 57.3794 136.75 53.8272 138.507 50.751C140.265 47.6504 142.621 45.2578 145.575 43.5733C148.554 41.8887 151.813 41.0464 155.353 41.0464C158.747 41.0464 161.823 41.8277 164.582 43.3902C167.34 44.9282 169.513 47.1011 171.1 49.9087C172.711 52.7163 173.517 55.9146 173.517 59.5034C173.517 61.481 173.322 63.3242 172.931 65.0332H146.418C147.101 67.3037 148.346 69.0982 150.153 70.4165C151.96 71.7349 154.108 72.3941 156.598 72.3941C158.332 72.3941 160.102 72.1133 161.908 71.5518C163.715 70.9903 165.094 70.3311 166.046 69.5742L169.635 78.2168C168.122 79.2422 166.23 80.0601 163.959 80.6704C161.689 81.2808 159.284 81.586 156.745 81.586ZM162.86 57.7822C162.86 56.2197 162.531 54.8648 161.872 53.7173C161.237 52.5454 160.334 51.6543 159.162 51.044C158.014 50.4092 156.696 50.0918 155.207 50.0918C152.863 50.0918 150.898 50.7998 149.311 52.2158C147.748 53.6074 146.711 55.4629 146.198 57.7822H162.86ZM189.887 81.586C187.274 81.586 184.943 81.0611 182.892 80.0113C180.866 78.937 179.279 77.4844 178.131 75.6533C177.008 73.8223 176.447 71.7959 176.447 69.5742C176.447 67.2061 177.094 65.1065 178.388 63.2754C179.682 61.4199 181.549 59.9795 183.991 58.9541C186.432 57.9043 189.337 57.3794 192.707 57.3794H200.141V55.4019C200.141 53.8394 199.567 52.6187 198.419 51.7398C197.296 50.8364 195.71 50.3848 193.659 50.3848C191.901 50.3848 189.984 50.6778 187.909 51.2637C185.858 51.8252 184.149 52.5332 182.782 53.3877L178.937 44.6719C180.646 43.6953 182.917 42.8408 185.749 42.1084C188.605 41.376 191.669 41.0098 194.94 41.0098C199.506 41.0098 202.973 41.7422 205.341 43.2071C207.733 44.6719 209.296 46.4297 210.028 48.4805C210.761 50.5313 211.127 52.7896 211.127 55.2554V67.1206C211.127 68.4634 211.298 69.4888 211.64 70.1968C211.982 70.8804 212.567 71.3565 213.398 71.625L214.276 71.918L210.211 81.586L208.857 81.1465C207.221 80.6094 205.854 79.938 204.755 79.1323C203.656 78.3267 202.851 77.4478 202.338 76.4956H202.191C201.142 77.9605 199.494 79.1812 197.248 80.1577C195.026 81.1099 192.572 81.586 189.887 81.586ZM187.616 68.8418C187.616 70.0869 188.092 71.0757 189.044 71.8081C190.021 72.5405 191.278 72.9068 192.816 72.9068C193.891 72.9068 195.038 72.7114 196.259 72.3208C197.48 71.9058 198.517 71.271 199.372 70.4165C200.251 69.5376 200.69 68.4268 200.69 67.084V64.6304H194.098C189.777 64.6304 187.616 66.0342 187.616 68.8418ZM236.359 81.586C233.21 81.586 230.548 80.9878 228.376 79.7915C226.227 78.5708 224.616 76.8863 223.542 74.7378C222.492 72.565 221.967 70.0381 221.967 67.1572V51.1904H215.375V41.5957H221.967V30.2432H233.539V41.5957H242.658V51.1904H233.539V66.8643C233.539 68.4756 233.918 69.6719 234.674 70.4531C235.456 71.2344 236.493 71.625 237.787 71.625C238.861 71.625 239.887 71.3687 240.863 70.856L244.599 79.9746C243.524 80.4873 242.255 80.8779 240.79 81.1465C239.35 81.4395 237.873 81.586 236.359 81.586ZM249.03 41.5957H260.602V81H249.03V41.5957ZM254.853 37.0547C253.534 37.0547 252.338 36.7373 251.264 36.1026C250.19 35.4678 249.335 34.6133 248.7 33.5391C248.09 32.4649 247.785 31.2808 247.785 29.9868C247.785 28.6685 248.09 27.4722 248.7 26.398C249.335 25.3238 250.19 24.4815 251.264 23.8711C252.338 23.2608 253.534 22.9556 254.853 22.9556C256.147 22.9556 257.331 23.273 258.405 23.9077C259.479 24.5181 260.321 25.3604 260.932 26.4346C261.566 27.4844 261.884 28.6685 261.884 29.9868C261.884 31.2808 261.566 32.4649 260.932 33.5391C260.321 34.6133 259.479 35.4678 258.405 36.1026C257.331 36.7373 256.147 37.0547 254.853 37.0547ZM264.264 41.5957H276.569L282.062 58.8076L284.772 68.8418H285.065L287.775 58.8076L293.341 41.5957H305.573L290.375 81H279.462L264.264 41.5957ZM309.235 41.5957H320.807V81H309.235V41.5957ZM315.058 37.0547C313.739 37.0547 312.543 36.7373 311.469 36.1026C310.395 35.4678 309.54 34.6133 308.905 33.5391C308.295 32.4649 307.99 31.2808 307.99 29.9868C307.99 28.6685 308.295 27.4722 308.905 26.398C309.54 25.3238 310.395 24.4815 311.469 23.8711C312.543 23.2608 313.739 22.9556 315.058 22.9556C316.352 22.9556 317.536 23.273 318.61 23.9077C319.684 24.5181 320.526 25.3604 321.137 26.4346C321.772 27.4844 322.089 28.6685 322.089 29.9868C322.089 31.2808 321.772 32.4649 321.137 33.5391C320.526 34.6133 319.684 35.4678 318.61 36.1026C317.536 36.7373 316.352 37.0547 315.058 37.0547ZM346.149 81.586C343 81.586 340.338 80.9878 338.166 79.7915C336.017 78.5708 334.406 76.8863 333.332 74.7378C332.282 72.565 331.757 70.0381 331.757 67.1572V51.1904H325.165V41.5957H331.757V30.2432H343.329V41.5957H352.448V51.1904H343.329V66.8643C343.329 68.4756 343.708 69.6719 344.464 70.4531C345.246 71.2344 346.283 71.625 347.577 71.625C348.651 71.625 349.677 71.3687 350.653 70.856L354.389 79.9746C353.315 80.4873 352.045 80.8779 350.58 81.1465C349.14 81.4395 347.663 81.586 346.149 81.586ZM365.192 96.9668C363.776 96.9668 362.311 96.8325 360.797 96.564C359.284 96.2954 357.978 95.978 356.879 95.6118L360.871 86.3467C361.457 86.6397 362.091 86.8594 362.775 87.0059C363.483 87.1768 364.142 87.2622 364.753 87.2622C367.438 87.2622 369.208 85.7608 370.063 82.7578L370.429 81.5127L354.169 41.5957H366.327L373.761 63.4951L375.592 69.2446H375.885L377.533 63.4951L384.418 41.5957H396.503L379.877 85.3946C379.023 87.6651 378.144 89.5571 377.24 91.0708C376.337 92.6089 374.897 93.9761 372.919 95.1724C370.966 96.3687 368.39 96.9668 365.192 96.9668Z" fill="#1E1E1E"/>
</svg>
