<svg width="443" height="109" viewBox="0 0 443 109" fill="none" xmlns="http://www.w3.org/2000/svg">
<path d="M4.73557e-06 0.0020014H388.689C418.46 0.0020014 442.818 24.2816 442.818 53.9579C442.818 67.7234 437.572 80.3207 428.982 89.8782L441.44 102.936C443.229 104.812 441.896 107.912 439.299 107.912L57.7794 107.912C28.0078 107.912 3.65027 83.6323 3.65027 53.956C3.65027 24.2796 28.0078 4.98738e-05 57.7794 4.98738e-05L4.73557e-06 0.0020014Z" fill="white"/>
<path d="M80.0468 81.9231C74.7245 81.9231 69.8173 80.7146 65.3251 78.2976C60.8329 75.8806 57.2685 72.5603 54.6317 68.3367C52.0194 64.1131 50.7133 59.4133 50.7133 54.2376C50.7133 49.0862 52.0072 44.4109 54.5951 40.2117C57.2074 36.0125 60.7231 32.7288 65.142 30.3606C69.5854 27.968 74.4316 26.7717 79.6806 26.7717C82.537 26.7717 85.3813 27.1502 88.2133 27.907C91.0453 28.6394 93.6576 29.7503 96.0502 31.2395L91.5092 41.9329C90.1908 40.6389 88.4941 39.6135 86.4189 38.8567C84.3437 38.0999 82.1464 37.7215 79.8271 37.7215C76.8241 37.7215 74.0043 38.4173 71.3676 39.8089C68.7309 41.2005 66.6191 43.1536 65.0321 45.6682C63.4696 48.1829 62.6884 51.0393 62.6884 54.2376C62.6884 57.4114 63.4696 60.28 65.0321 62.8435C66.5946 65.3826 68.7065 67.3723 71.3676 68.8128C74.0531 70.2532 76.9828 70.9734 80.1567 70.9734C82.3295 70.9734 84.4779 70.6316 86.602 69.948C88.726 69.24 90.4106 68.2268 91.6557 66.9085L96.1967 77.5652C93.8774 79.0056 91.3017 80.0921 88.4696 80.8245C85.662 81.5569 82.8544 81.9231 80.0468 81.9231ZM101.507 41.9329H112.749V47.4627H112.969C114.288 45.7049 115.948 44.2522 117.95 43.1048C119.952 41.9329 122.259 41.3469 124.871 41.3469C125.823 41.3469 126.714 41.4324 127.544 41.6033C128.374 41.7498 128.973 41.9329 129.339 42.1526L124.688 53.2122C124.371 53.0657 123.907 52.9314 123.296 52.8093C122.686 52.6629 122.027 52.5896 121.319 52.5896C120.025 52.5896 118.743 52.907 117.474 53.5418C116.204 54.1765 115.154 55.1409 114.324 56.4348C113.494 57.7044 113.079 59.2547 113.079 61.0857V81.3372H101.507V41.9329ZM149.81 81.9231C145.611 81.9231 141.936 81.0686 138.787 79.3596C135.638 77.6507 133.208 75.2703 131.499 72.2185C129.79 69.1424 128.936 65.6511 128.936 61.7449C128.936 57.7166 129.815 54.1643 131.573 51.0882C133.33 47.9876 135.686 45.595 138.641 43.9104C141.619 42.2258 144.878 41.3836 148.418 41.3836C151.812 41.3836 154.888 42.1648 157.647 43.7273C160.406 45.2654 162.579 47.4383 164.165 50.2459C165.777 53.0535 166.582 56.2517 166.582 59.8406C166.582 61.8181 166.387 63.6614 165.996 65.3704H139.483C140.166 67.6409 141.412 69.4353 143.218 70.7537C145.025 72.072 147.173 72.7312 149.663 72.7312C151.397 72.7312 153.167 72.4505 154.974 71.8889C156.78 71.3274 158.16 70.6682 159.112 69.9114L162.701 78.554C161.187 79.5794 159.295 80.3972 157.024 81.0076C154.754 81.6179 152.349 81.9231 149.81 81.9231ZM155.926 58.1194C155.926 56.5569 155.596 55.2019 154.937 54.0545C154.302 52.8826 153.399 51.9915 152.227 51.3811C151.08 50.7464 149.761 50.429 148.272 50.429C145.928 50.429 143.963 51.137 142.376 52.553C140.813 53.9446 139.776 55.8001 139.263 58.1194H155.926ZM182.952 81.9231C180.34 81.9231 178.008 81.3982 175.957 80.3484C173.931 79.2742 172.344 77.8216 171.197 75.9905C170.074 74.1594 169.512 72.1331 169.512 69.9114C169.512 67.5432 170.159 65.4436 171.453 63.6126C172.747 61.7571 174.615 60.3167 177.056 59.2913C179.497 58.2415 182.403 57.7166 185.772 57.7166H193.206V55.739C193.206 54.1765 192.632 52.9558 191.485 52.0769C190.362 51.1736 188.775 50.7219 186.724 50.7219C184.966 50.7219 183.05 51.0149 180.975 51.6008C178.924 52.1624 177.215 52.8704 175.848 53.7249L172.002 45.0091C173.711 44.0325 175.982 43.178 178.814 42.4456C181.67 41.7132 184.734 41.3469 188.006 41.3469C192.571 41.3469 196.038 42.0794 198.406 43.5442C200.799 45.0091 202.361 46.7669 203.094 48.8176C203.826 50.8684 204.192 53.1267 204.192 55.5925V67.4578C204.192 68.8006 204.363 69.8259 204.705 70.534C205.047 71.2175 205.633 71.6936 206.463 71.9622L207.342 72.2551L203.277 81.9231L201.922 81.4837C200.286 80.9466 198.919 80.2752 197.82 79.4695C196.722 78.6638 195.916 77.7849 195.403 76.8328H195.257C194.207 78.2976 192.559 79.5183 190.313 80.4949C188.091 81.447 185.638 81.9231 182.952 81.9231ZM180.682 69.179C180.682 70.4241 181.158 71.4129 182.11 72.1453C183.086 72.8777 184.344 73.2439 185.882 73.2439C186.956 73.2439 188.103 73.0486 189.324 72.658C190.545 72.2429 191.582 71.6082 192.437 70.7537C193.316 69.8748 193.755 68.7639 193.755 67.4212V64.9675H187.163C182.842 64.9675 180.682 66.3714 180.682 69.179ZM229.424 81.9231C226.275 81.9231 223.614 81.325 221.441 80.1287C219.292 78.908 217.681 77.2234 216.607 75.075C215.557 72.9021 215.032 70.3753 215.032 67.4944V51.5276H208.44V41.9329H215.032V30.5803H226.604V41.9329H235.723V51.5276H226.604V67.2014C226.604 68.8128 226.983 70.0091 227.74 70.7903C228.521 71.5716 229.559 71.9622 230.852 71.9622C231.927 71.9622 232.952 71.7058 233.929 71.1931L237.664 80.3118C236.59 80.8245 235.32 81.2151 233.855 81.4837C232.415 81.7766 230.938 81.9231 229.424 81.9231ZM242.095 41.9329H253.667V81.3372H242.095V41.9329ZM247.918 37.3919C246.6 37.3919 245.403 37.0745 244.329 36.4397C243.255 35.805 242.4 34.9505 241.766 33.8762C241.155 32.802 240.85 31.6179 240.85 30.324C240.85 29.0056 241.155 27.8093 241.766 26.7351C242.4 25.6609 243.255 24.8186 244.329 24.2083C245.403 23.5979 246.6 23.2927 247.918 23.2927C249.212 23.2927 250.396 23.6101 251.47 24.2449C252.544 24.8552 253.387 25.6975 253.997 26.7717C254.632 27.8216 254.949 29.0056 254.949 30.324C254.949 31.6179 254.632 32.802 253.997 33.8762C253.387 34.9505 252.544 35.805 251.47 36.4397C250.396 37.0745 249.212 37.3919 247.918 37.3919ZM257.33 41.9329H269.634L275.127 59.1448L277.837 69.179H278.13L280.84 59.1448L286.407 41.9329H298.638L283.44 81.3372H272.527L257.33 41.9329ZM302.3 41.9329H313.872V81.3372H302.3V41.9329ZM308.123 37.3919C306.805 37.3919 305.608 37.0745 304.534 36.4397C303.46 35.805 302.605 34.9505 301.971 33.8762C301.36 32.802 301.055 31.6179 301.055 30.324C301.055 29.0056 301.36 27.8093 301.971 26.7351C302.605 25.6609 303.46 24.8186 304.534 24.2083C305.608 23.5979 306.805 23.2927 308.123 23.2927C309.417 23.2927 310.601 23.6101 311.675 24.2449C312.749 24.8552 313.592 25.6975 314.202 26.7717C314.837 27.8216 315.154 29.0056 315.154 30.324C315.154 31.6179 314.837 32.802 314.202 33.8762C313.592 34.9505 312.749 35.805 311.675 36.4397C310.601 37.0745 309.417 37.3919 308.123 37.3919ZM339.214 81.9231C336.065 81.9231 333.404 81.325 331.231 80.1287C329.082 78.908 327.471 77.2234 326.397 75.075C325.347 72.9021 324.822 70.3753 324.822 67.4944V51.5276H318.23V41.9329H324.822V30.5803H336.394V41.9329H345.513V51.5276H336.394V67.2014C336.394 68.8128 336.773 70.0091 337.53 70.7903C338.311 71.5716 339.349 71.9622 340.642 71.9622C341.717 71.9622 342.742 71.7058 343.719 71.1931L347.454 80.3118C346.38 80.8245 345.11 81.2151 343.645 81.4837C342.205 81.7766 340.728 81.9231 339.214 81.9231ZM358.257 97.304C356.841 97.304 355.376 97.1697 353.863 96.9011C352.349 96.6326 351.043 96.3152 349.944 95.949L353.936 86.6839C354.522 86.9768 355.157 87.1966 355.84 87.343C356.548 87.5139 357.207 87.5994 357.818 87.5994C360.503 87.5994 362.273 86.0979 363.128 83.095L363.494 81.8499L347.234 41.9329H359.392L366.827 63.8323L368.658 69.5818H368.951L370.599 63.8323L377.483 41.9329H389.568L372.942 85.7317C372.088 88.0022 371.209 89.8943 370.306 91.408C369.402 92.9461 367.962 94.3133 365.984 95.5095C364.031 96.7058 361.455 97.304 358.257 97.304Z" fill="#1E1E1E"/>
</svg>
