<svg width="358" height="108" viewBox="0 0 358 108" fill="none" xmlns="http://www.w3.org/2000/svg">
<path d="M303.871 0.00190583L54.1292 0.00173079C24.3576 0.00173079 4.72083e-06 24.2813 4.72083e-06 53.9576C4.72083e-06 67.723 5.24558 80.3207 13.8361 89.8782L1.37813 102.936C-0.410782 104.812 0.921909 107.912 3.51914 107.912L303.871 107.912C333.643 107.912 358 83.6323 358 53.9559C358 24.2796 333.643 1.88647e-05 303.871 1.88647e-05V0.00190583Z" fill="#FF4500"/>
<path d="M60.9075 27.0205H92.5115V37.7139H72.9192V48.5171H89.1423V58.8809H72.9192V70.3067H92.5115V81H60.9075V27.0205ZM99.3962 41.5957H110.602V46.7593H110.822C112.067 44.9038 113.752 43.4878 115.876 42.5112C118 41.5103 120.319 41.0098 122.834 41.0098C125.422 41.0098 127.68 41.6079 129.609 42.8042C131.537 44.0005 133.014 45.6729 134.04 47.8213C135.065 49.9697 135.578 52.4356 135.578 55.2188V81H124.006V57.7456C124.006 55.4019 123.456 53.6319 122.358 52.4356C121.259 51.2393 119.721 50.6411 117.743 50.6411C115.766 50.6411 114.142 51.2759 112.873 52.5454C111.603 53.7905 110.969 55.5606 110.969 57.8555V81H99.3962V41.5957ZM161.359 81.586C157.16 81.586 153.486 80.7315 150.336 79.0225C147.187 77.3135 144.758 74.9331 143.049 71.8814C141.34 68.8052 140.485 65.314 140.485 61.4077C140.485 57.3794 141.364 53.8272 143.122 50.751C144.88 47.6504 147.236 45.2578 150.19 43.5733C153.168 41.8887 156.427 41.0464 159.968 41.0464C163.361 41.0464 166.437 41.8277 169.196 43.3902C171.955 44.9282 174.128 47.1011 175.715 49.9087C177.326 52.7163 178.132 55.9146 178.132 59.5034C178.132 61.481 177.936 63.3242 177.546 65.0332H151.032C151.716 67.3037 152.961 69.0982 154.767 70.4165C156.574 71.7349 158.722 72.3941 161.213 72.3941C162.946 72.3941 164.716 72.1133 166.523 71.5518C168.329 70.9903 169.709 70.3311 170.661 69.5742L174.25 78.2168C172.736 79.2422 170.844 80.0601 168.573 80.6704C166.303 81.2808 163.898 81.586 161.359 81.586ZM167.475 57.7822C167.475 56.2197 167.145 54.8648 166.486 53.7173C165.851 52.5454 164.948 51.6543 163.776 51.044C162.629 50.4092 161.31 50.0918 159.821 50.0918C157.477 50.0918 155.512 50.7998 153.925 52.2158C152.363 53.6074 151.325 55.4629 150.812 57.7822H167.475ZM183.661 41.5957H194.904V47.1255H195.124C196.442 45.3677 198.102 43.9151 200.104 42.7676C202.106 41.5957 204.413 41.0098 207.026 41.0098C207.978 41.0098 208.869 41.0952 209.699 41.2661C210.529 41.4126 211.127 41.5957 211.493 41.8154L206.843 52.875C206.525 52.7285 206.061 52.5943 205.451 52.4722C204.841 52.3257 204.181 52.2525 203.473 52.2525C202.179 52.2525 200.898 52.5698 199.628 53.2046C198.359 53.8394 197.309 54.8037 196.479 56.0977C195.649 57.3672 195.234 58.9175 195.234 60.7486V81H183.661V41.5957ZM229.694 96.9668C226.691 96.9668 223.823 96.6006 221.088 95.8682C218.354 95.1602 216.083 94.3179 214.277 93.3413L218.085 84.2593C219.55 85.1626 221.186 85.895 222.992 86.4566C224.799 87.0181 226.606 87.2988 228.412 87.2988C230.146 87.2988 231.879 87.0181 233.613 86.4566C235.346 85.895 236.786 85.0161 237.934 83.8198C239.081 82.6236 239.655 81.1465 239.655 79.3887V75.5801H239.509C237.97 77.0694 236.249 78.229 234.345 79.0591C232.441 79.8648 230.414 80.2676 228.266 80.2676C225.336 80.2676 222.553 79.5352 219.916 78.0703C217.28 76.6055 215.131 74.396 213.471 71.4419C211.811 68.4878 210.981 64.9111 210.981 60.7119C210.981 56.5371 211.811 52.9605 213.471 49.9819C215.156 47.0034 217.341 44.7573 220.026 43.2437C222.736 41.73 225.617 40.9732 228.669 40.9732C230.866 40.9732 232.905 41.3638 234.784 42.145C236.689 42.9019 238.373 43.9883 239.838 45.4043H240.058V41.5591H250.568V78.7295C250.568 82.6358 249.689 85.9561 247.931 88.6904C246.174 91.4248 243.72 93.4878 240.571 94.8794C237.446 96.271 233.82 96.9668 229.694 96.9668ZM231.122 70.856C232.856 70.856 234.394 70.4165 235.737 69.5376C237.104 68.6587 238.166 67.4258 238.923 65.8389C239.704 64.252 240.094 62.4331 240.094 60.3823C240.094 58.3316 239.716 56.5493 238.959 55.0357C238.227 53.522 237.201 52.3623 235.883 51.5567C234.565 50.7266 233.051 50.3115 231.342 50.3115C229.584 50.3115 228.022 50.7266 226.655 51.5567C225.287 52.3867 224.213 53.5586 223.432 55.0723C222.675 56.586 222.297 58.356 222.297 60.3823C222.297 62.4087 222.675 64.2153 223.432 65.8023C224.189 67.3892 225.226 68.6343 226.545 69.5376C227.887 70.4165 229.413 70.856 231.122 70.856ZM265.217 96.9668C263.801 96.9668 262.336 96.8325 260.822 96.564C259.308 96.2954 258.002 95.978 256.904 95.6118L260.895 86.3467C261.481 86.6397 262.116 86.8594 262.8 87.0059C263.508 87.1768 264.167 87.2622 264.777 87.2622C267.463 87.2622 269.233 85.7608 270.087 82.7578L270.453 81.5127L254.194 41.5957H266.352L273.786 63.4951L275.617 69.2446H275.91L277.558 63.4951L284.443 41.5957H296.528L279.902 85.3945C279.047 87.6651 278.168 89.5571 277.265 91.0708C276.362 92.6089 274.921 93.9761 272.944 95.1724C270.99 96.3687 268.415 96.9668 265.217 96.9668Z" fill="#1E1E1E"/>
</svg>
