<svg width="350" height="109" viewBox="0 0 350 109" fill="none" xmlns="http://www.w3.org/2000/svg">
<path d="M54.1292 0.00195154L294.94 0.00196679C324.711 0.00196679 349.069 24.2816 349.069 53.9579C349.069 67.7233 343.823 80.3207 335.233 89.8782L347.691 102.936C349.48 104.812 348.147 107.912 345.55 107.912L54.1292 107.912C24.3575 107.912 4.73557e-06 83.6323 4.73557e-06 53.9559C4.73557e-06 24.2796 24.3575 1.52583e-05 54.1292 1.52583e-05V0.00195154Z" fill="white"/>
<path d="M63.9073 27.3577H95.5113V38.0511H75.919V48.8543H92.1422V59.2181H75.919V70.6439H95.5113V81.3372H63.9073V27.3577ZM102.396 41.9329H113.602V47.0965H113.822C115.067 45.241 116.752 43.825 118.876 42.8485C121 41.8475 123.319 41.347 125.834 41.347C128.421 41.347 130.68 41.9451 132.608 43.1414C134.537 44.3377 136.014 46.0101 137.04 48.1585C138.065 50.307 138.578 52.7728 138.578 55.556V81.3372H127.005V58.0828C127.005 55.7391 126.456 53.9691 125.357 52.7728C124.259 51.5765 122.721 50.9783 120.743 50.9783C118.766 50.9783 117.142 51.6131 115.873 52.8826C114.603 54.1278 113.968 55.8978 113.968 58.1927V81.3372H102.396V41.9329ZM164.359 81.9232C160.16 81.9232 156.485 81.0687 153.336 79.3597C150.187 77.6507 147.757 75.2703 146.048 72.2186C144.339 69.1424 143.485 65.6512 143.485 61.7449C143.485 57.7166 144.364 54.1644 146.122 51.0882C147.879 47.9876 150.235 45.595 153.19 43.9105C156.168 42.2259 159.427 41.3836 162.967 41.3836C166.361 41.3836 169.437 42.1649 172.196 43.7274C174.955 45.2655 177.128 47.4383 178.714 50.2459C180.326 53.0535 181.131 56.2518 181.131 59.8407C181.131 61.8182 180.936 63.6615 180.545 65.3704H154.032C154.715 67.6409 155.961 69.4354 157.767 70.7537C159.574 72.0721 161.722 72.7313 164.212 72.7313C165.946 72.7313 167.716 72.4505 169.523 71.889C171.329 71.3275 172.709 70.6683 173.661 69.9115L177.25 78.554C175.736 79.5794 173.844 80.3973 171.573 81.0076C169.303 81.618 166.898 81.9232 164.359 81.9232ZM170.475 58.1195C170.475 56.557 170.145 55.202 169.486 54.0545C168.851 52.8826 167.948 51.9915 166.776 51.3812C165.628 50.7464 164.31 50.429 162.821 50.429C160.477 50.429 158.512 51.137 156.925 52.5531C155.362 53.9447 154.325 55.8001 153.812 58.1195H170.475ZM186.661 41.9329H197.904V47.4627H198.124C199.442 45.7049 201.102 44.2523 203.104 43.1048C205.106 41.9329 207.413 41.347 210.025 41.347C210.978 41.347 211.869 41.4324 212.699 41.6033C213.529 41.7498 214.127 41.9329 214.493 42.1527L209.842 53.2122C209.525 53.0658 209.061 52.9315 208.451 52.8094C207.84 52.6629 207.181 52.5897 206.473 52.5897C205.179 52.5897 203.898 52.9071 202.628 53.5418C201.358 54.1766 200.309 55.1409 199.479 56.4349C198.649 57.7044 198.233 59.2547 198.233 61.0858V81.3372H186.661V41.9329ZM232.694 97.304C229.691 97.304 226.822 96.9378 224.088 96.2054C221.354 95.4974 219.083 94.6551 217.276 93.6785L221.085 84.5965C222.55 85.4998 224.186 86.2323 225.992 86.7938C227.799 87.3553 229.606 87.6361 231.412 87.6361C233.146 87.6361 234.879 87.3553 236.612 86.7938C238.346 86.2323 239.786 85.3533 240.934 84.1571C242.081 82.9608 242.655 81.4837 242.655 79.7259V75.9173H242.508C240.97 77.4066 239.249 78.5662 237.345 79.3963C235.44 80.202 233.414 80.6048 231.266 80.6048C228.336 80.6048 225.553 79.8724 222.916 78.4075C220.279 76.9427 218.131 74.7332 216.471 71.7791C214.811 68.825 213.981 65.2484 213.981 61.0491C213.981 56.8743 214.811 53.2977 216.471 50.3192C218.155 47.3407 220.34 45.0946 223.026 43.5809C225.736 42.0672 228.617 41.3104 231.669 41.3104C233.866 41.3104 235.904 41.701 237.784 42.4823C239.689 43.2391 241.373 44.3255 242.838 45.7415H243.058V41.8963H253.568V79.0667C253.568 82.973 252.689 86.2933 250.931 89.0277C249.173 91.762 246.72 93.825 243.57 95.2166C240.445 96.6082 236.82 97.304 232.694 97.304ZM234.122 71.1932C235.856 71.1932 237.394 70.7537 238.736 69.8748C240.104 68.9959 241.166 67.763 241.922 66.1761C242.704 64.5892 243.094 62.7703 243.094 60.7196C243.094 58.6688 242.716 56.8866 241.959 55.3729C241.227 53.8592 240.201 52.6995 238.883 51.8939C237.565 51.0638 236.051 50.6488 234.342 50.6488C232.584 50.6488 231.022 51.0638 229.654 51.8939C228.287 52.724 227.213 53.8958 226.432 55.4095C225.675 56.9232 225.296 58.6932 225.296 60.7196C225.296 62.7459 225.675 64.5526 226.432 66.1395C227.189 67.7264 228.226 68.9715 229.544 69.8748C230.887 70.7537 232.413 71.1932 234.122 71.1932ZM268.216 97.304C266.8 97.304 265.336 97.1698 263.822 96.9012C262.308 96.6326 261.002 96.3153 259.903 95.9491L263.895 86.6839C264.481 86.9769 265.116 87.1966 265.799 87.3431C266.507 87.514 267.167 87.5994 267.777 87.5994C270.462 87.5994 272.232 86.098 273.087 83.095L273.453 81.8499L257.193 41.9329H269.352L276.786 63.8324L278.617 69.5819H278.91L280.558 63.8324L287.442 41.9329H299.527L282.901 85.7318C282.047 88.0023 281.168 89.8944 280.265 91.408C279.361 92.9461 277.921 94.3133 275.943 95.5096C273.99 96.7059 271.415 97.304 268.216 97.304Z" fill="#1E1E1E"/>
</svg>
