<svg width="232" height="109" viewBox="0 0 232 109" fill="none" xmlns="http://www.w3.org/2000/svg">
<path d="M177.854 0.00191237L54.1292 0.00197693C24.3576 0.00197693 0 24.2816 0 53.9579C0 67.7233 5.24557 80.3207 13.8361 89.8782L1.37812 102.936C-0.410787 104.812 0.921903 107.912 3.51913 107.912L177.854 107.912C207.626 107.912 231.983 83.6323 231.983 53.956C231.983 24.2796 207.626 2.53991e-05 177.854 2.53991e-05V0.00191237Z" fill="#FF4500"/>
<path d="M67.375 81.8862C63.9082 81.8862 60.8809 81.1538 58.293 79.689C55.7295 78.1997 53.752 76.1001 52.3604 73.3901C50.9688 70.6558 50.2607 67.4819 50.2363 63.8687H61.5522C61.5522 66.1148 62.0527 67.897 63.0537 69.2153C64.0547 70.5337 65.4097 71.1929 67.1187 71.1929C68.7788 71.1929 70.1094 70.5947 71.1104 69.3984C72.1357 68.2022 72.6484 66.5786 72.6484 64.5278V27.3208H84.6602V64.3814C84.6602 67.9458 83.9399 71.0586 82.4995 73.7197C81.0835 76.3565 79.0693 78.3828 76.457 79.7988C73.8447 81.1904 70.8174 81.8862 67.375 81.8862ZM111.064 81.8862C107.304 81.8862 103.85 81.0195 100.7 79.2861C97.5752 77.5527 95.0972 75.1358 93.2661 72.0352C91.4351 68.9346 90.5195 65.4434 90.5195 61.5615C90.5195 57.6797 91.4351 54.2007 93.2661 51.1245C95.0972 48.0239 97.5752 45.6192 100.7 43.9102C103.85 42.1768 107.304 41.3101 111.064 41.3101C114.897 41.3101 118.376 42.1768 121.501 43.9102C124.626 45.6192 127.092 48.0117 128.898 51.0879C130.705 54.1641 131.608 57.6553 131.608 61.5615C131.608 65.4678 130.705 68.9712 128.898 72.0718C127.092 75.148 124.614 77.5527 121.464 79.2861C118.339 81.0195 114.873 81.8862 111.064 81.8862ZM111.064 71.9985C112.871 71.9985 114.494 71.5591 115.935 70.6802C117.375 69.8013 118.51 68.5684 119.34 66.9815C120.17 65.3945 120.585 63.5879 120.585 61.5615C120.585 59.584 120.183 57.814 119.377 56.2515C118.571 54.6646 117.448 53.4317 116.008 52.5527C114.592 51.6494 112.968 51.1978 111.137 51.1978C109.331 51.1978 107.695 51.6372 106.23 52.5161C104.765 53.395 103.618 54.6279 102.788 56.2149C101.958 57.7774 101.542 59.5596 101.542 61.5615C101.542 63.5879 101.958 65.3945 102.788 66.9815C103.618 68.5684 104.753 69.8013 106.193 70.6802C107.658 71.5591 109.282 71.9985 111.064 71.9985ZM143.4 97.2671C141.984 97.2671 140.52 97.1328 139.006 96.8643C137.492 96.5957 136.186 96.2783 135.087 95.9121L139.079 86.647C139.665 86.94 140.3 87.1597 140.983 87.3062C141.691 87.4771 142.351 87.5625 142.961 87.5625C145.646 87.5625 147.417 86.061 148.271 83.0581L148.637 81.813L132.377 41.896H144.536L151.97 63.7954L153.801 69.5449H154.094L155.742 63.7954L162.626 41.896H174.711L158.085 85.6948C157.231 87.9653 156.352 89.8574 155.449 91.3711C154.545 92.9092 153.105 94.2764 151.127 95.4727C149.174 96.669 146.599 97.2671 143.4 97.2671Z" fill="#1E1E1E"/>
</svg>
