<svg width="395" height="108" viewBox="0 0 395 108" fill="none" xmlns="http://www.w3.org/2000/svg">
<path d="M340.5 0.00190422L54.1292 0.00151398C24.3576 0.00151398 0 24.281 0 53.9574C0 67.7228 5.24558 80.3207 13.8361 89.8782L1.37812 102.936C-0.410787 104.812 0.921904 107.912 3.51914 107.912L340.5 107.912C370.272 107.912 394.629 83.6323 394.629 53.9559C394.629 24.2796 370.272 1.72498e-05 340.5 1.72498e-05V0.00190422Z" fill="#FF4500"/>
<path d="M60.9075 27.0205H79.2913C83.3684 27.0205 86.8962 27.7529 89.8748 29.2178C92.8777 30.6582 95.1726 32.7212 96.7595 35.4068C98.3464 38.0923 99.1399 41.2295 99.1399 44.8184C99.1399 48.4805 98.322 51.7153 96.6863 54.523C95.075 57.3306 92.7922 59.5156 89.8381 61.0781C86.884 62.6406 83.4783 63.4219 79.6208 63.4219H72.9192V81H60.9075V27.0205ZM78.9983 52.8384C80.6829 52.8384 82.1599 52.5088 83.4294 51.8496C84.699 51.1904 85.6755 50.2871 86.3591 49.1397C87.0427 47.9678 87.3845 46.6494 87.3845 45.1846C87.3845 42.8897 86.5911 41.0708 85.0042 39.728C83.4172 38.3853 81.2688 37.7139 78.5588 37.7139H72.9192V52.8384H78.9983ZM119.135 81.586C116.376 81.586 113.886 81 111.664 79.8281C109.443 78.6563 107.685 76.9229 106.391 74.6279C105.121 72.333 104.487 69.5742 104.487 66.3516V41.5957H116.059V64.8135C116.059 67.0352 116.633 68.7564 117.78 69.9771C118.927 71.1734 120.392 71.7715 122.175 71.7715C124.079 71.7715 125.629 71.1489 126.825 69.9038C128.022 68.6343 128.62 66.9375 128.62 64.8135V41.5957H140.192V67.1939C140.192 68.1704 140.278 68.9395 140.448 69.501C140.619 70.0625 140.925 70.5264 141.364 70.8926C141.803 71.2588 142.463 71.6006 143.342 71.918L139.24 81.586C137.043 81.0244 135.297 80.3286 134.003 79.4986C132.734 78.6685 131.843 77.6675 131.33 76.4956H131.037C129.426 78.107 127.619 79.3643 125.617 80.2676C123.615 81.1465 121.454 81.586 119.135 81.586ZM148.578 41.5957H159.821V47.1255H160.041C161.359 45.3677 163.019 43.9151 165.021 42.7676C167.023 41.5957 169.33 41.0098 171.943 41.0098C172.895 41.0098 173.786 41.0952 174.616 41.2661C175.446 41.4126 176.044 41.5957 176.41 41.8154L171.76 52.875C171.442 52.7285 170.978 52.5943 170.368 52.4722C169.758 52.3257 169.098 52.2525 168.39 52.2525C167.096 52.2525 165.815 52.5698 164.545 53.2046C163.276 53.8394 162.226 54.8037 161.396 56.0977C160.566 57.3672 160.151 58.9175 160.151 60.7486V81H148.578V41.5957ZM179.56 41.5957H190.546V45.5142H190.656C192.145 44.0493 193.842 42.9263 195.746 42.145C197.651 41.3394 199.689 40.9365 201.862 40.9365C204.914 40.9365 207.782 41.73 210.468 43.3169C213.178 44.8794 215.351 47.211 216.987 50.3115C218.622 53.4121 219.416 57.1109 219.367 61.4077C219.416 65.729 218.622 69.4155 216.987 72.4673C215.351 75.5191 213.202 77.8018 210.541 79.3154C207.905 80.8291 205.121 81.586 202.192 81.586C200.165 81.586 198.224 81.2197 196.369 80.4873C194.538 79.7305 192.878 78.6563 191.388 77.2647H191.132V96.3809H179.56V41.5957ZM199.482 71.918C201.166 71.8936 202.668 71.4419 203.986 70.563C205.304 69.6597 206.318 68.4024 207.026 66.791C207.758 65.1797 208.112 63.312 208.088 61.188C208.112 59.0396 207.746 57.1719 206.989 55.585C206.257 53.9737 205.219 52.7529 203.876 51.9229C202.533 51.0684 200.995 50.6533 199.262 50.6778C197.626 50.6533 196.149 51.0684 194.831 51.9229C193.537 52.7529 192.511 53.9614 191.755 55.5484C191.022 57.1353 190.656 59.0152 190.656 61.188C190.656 63.312 191.034 65.1797 191.791 66.791C192.573 68.4024 193.622 69.6597 194.941 70.563C196.283 71.4419 197.797 71.8936 199.482 71.918ZM244.013 81.586C240.253 81.586 236.799 80.7193 233.649 78.9859C230.524 77.2525 228.046 74.8355 226.215 71.7349C224.384 68.6343 223.469 65.1431 223.469 61.2612C223.469 57.3794 224.384 53.9004 226.215 50.8242C228.046 47.7237 230.524 45.3189 233.649 43.6099C236.799 41.8765 240.253 41.0098 244.013 41.0098C247.846 41.0098 251.325 41.8765 254.45 43.6099C257.575 45.3189 260.041 47.7114 261.847 50.7876C263.654 53.8638 264.557 57.355 264.557 61.2612C264.557 65.1675 263.654 68.6709 261.847 71.7715C260.041 74.8477 257.563 77.2525 254.413 78.9859C251.288 80.7193 247.822 81.586 244.013 81.586ZM244.013 71.6983C245.82 71.6983 247.443 71.2588 248.884 70.3799C250.324 69.501 251.459 68.2681 252.289 66.6812C253.119 65.0943 253.534 63.2876 253.534 61.2612C253.534 59.2837 253.132 57.5137 252.326 55.9512C251.52 54.3643 250.397 53.1314 248.957 52.2525C247.541 51.3491 245.917 50.8975 244.086 50.8975C242.28 50.8975 240.644 51.3369 239.179 52.2158C237.714 53.0947 236.567 54.3277 235.737 55.9146C234.906 57.4771 234.491 59.2593 234.491 61.2612C234.491 63.2876 234.906 65.0943 235.737 66.6812C236.567 68.2681 237.702 69.501 239.142 70.3799C240.607 71.2588 242.231 71.6983 244.013 71.6983ZM283.71 81.586C281.391 81.586 279.145 81.1953 276.972 80.4141C274.823 79.6084 272.907 78.461 271.222 76.9717C269.562 75.4824 268.305 73.749 267.45 71.7715L276.679 67.8164C277.387 69.1592 278.376 70.2822 279.645 71.1856C280.915 72.0645 282.294 72.5039 283.783 72.5039C284.662 72.5039 285.431 72.3574 286.091 72.0645C286.774 71.7471 287.287 71.3565 287.629 70.8926C287.995 70.4043 288.178 69.8916 288.178 69.3545C288.178 68.2559 287.494 67.3892 286.127 66.7544C284.784 66.0952 283.002 65.4605 280.781 64.8501L279.535 64.5205C276.191 63.5684 273.566 62.1402 271.662 60.2359C269.782 58.3071 268.842 55.8779 268.842 52.9483C268.842 50.6289 269.452 48.5659 270.673 46.7593C271.894 44.9282 273.566 43.5122 275.69 42.5112C277.839 41.5103 280.243 41.0098 282.905 41.0098C285.175 41.0098 287.311 41.3882 289.313 42.145C291.34 42.9019 293.073 43.9395 294.513 45.2578C295.978 46.5518 297.04 47.9922 297.699 49.5791L288.837 53.3145C288.276 52.46 287.531 51.6909 286.603 51.0073C285.7 50.2993 284.589 49.9453 283.271 49.9453C282.148 49.9453 281.208 50.2383 280.451 50.8242C279.694 51.4102 279.316 52.1426 279.316 53.0215C279.316 53.8516 279.657 54.5474 280.341 55.1089C281.049 55.646 281.891 56.0855 282.868 56.4273C283.844 56.7446 285.273 57.1719 287.153 57.709C288.91 58.1973 290.583 58.8076 292.17 59.5401C293.757 60.2725 295.209 61.4321 296.528 63.0191C297.846 64.5816 298.505 66.5957 298.505 69.0615C298.505 71.4785 297.834 73.6392 296.491 75.5435C295.148 77.4478 293.342 78.937 291.071 80.0112C288.825 81.0611 286.371 81.586 283.71 81.586ZM322.931 81.586C318.732 81.586 315.058 80.7315 311.908 79.0225C308.759 77.3135 306.33 74.9331 304.621 71.8814C302.912 68.8052 302.057 65.314 302.057 61.4077C302.057 57.3794 302.936 53.8272 304.694 50.751C306.452 47.6504 308.808 45.2578 311.762 43.5733C314.74 41.8887 318 41.0464 321.54 41.0464C324.933 41.0464 328.01 41.8277 330.768 43.3902C333.527 44.9282 335.7 47.1011 337.287 49.9087C338.898 52.7163 339.704 55.9146 339.704 59.5034C339.704 61.481 339.509 63.3242 339.118 65.0332H312.604C313.288 67.3037 314.533 69.0982 316.34 70.4165C318.146 71.7349 320.295 72.3941 322.785 72.3941C324.518 72.3941 326.288 72.1133 328.095 71.5518C329.902 70.9903 331.281 70.3311 332.233 69.5742L335.822 78.2168C334.308 79.2422 332.416 80.0601 330.146 80.6704C327.875 81.2808 325.47 81.586 322.931 81.586ZM329.047 57.7822C329.047 56.2197 328.718 54.8648 328.058 53.7173C327.424 52.5454 326.52 51.6543 325.348 51.044C324.201 50.4092 322.883 50.0918 321.393 50.0918C319.05 50.0918 317.084 50.7998 315.497 52.2158C313.935 53.6074 312.897 55.4629 312.385 57.7822H329.047Z" fill="#1E1E1E"/>
</svg>
