<svg width="382" height="108" viewBox="0 0 382 108" fill="none" xmlns="http://www.w3.org/2000/svg">
<path d="M200.996 0.0032526L54.1292 0.00328159C24.3576 0.00328159 4.71705e-06 24.2829 4.71705e-06 53.9592C4.71705e-06 67.7246 5.24558 80.322 13.8361 89.8795L1.37813 102.937C-0.410782 104.813 0.921908 107.913 3.51914 107.913L326.893 107.912C356.665 107.912 381.022 83.6322 381.022 53.9559C381.022 24.2796 356.665 -2.02786e-05 326.893 -2.02786e-05L200.996 0.0032526Z" fill="white"/>
<path d="M54.2003 27.0222H72.5841C76.6613 27.0222 80.1891 27.7546 83.1676 29.2195C86.1705 30.6599 88.4655 32.7229 90.0524 35.4084C91.6393 38.094 92.4327 41.2312 92.4327 44.8201C92.4327 48.4822 91.6149 51.717 89.9791 54.5247C88.3678 57.3323 86.0851 59.5173 83.131 61.0798C80.1769 62.6423 76.7711 63.4236 72.9137 63.4236H66.212V81.0017H54.2003V27.0222ZM72.2911 52.8401C73.9757 52.8401 75.4528 52.5105 76.7223 51.8513C77.9918 51.1921 78.9684 50.2888 79.652 49.1414C80.3356 47.9695 80.6774 46.6511 80.6774 45.1863C80.6774 42.8914 79.8839 41.0725 78.297 39.7297C76.7101 38.387 74.5617 37.7156 71.8517 37.7156H66.212V52.8401H72.2911ZM112.428 81.5876C109.669 81.5876 107.179 81.0017 104.957 79.8298C102.735 78.658 100.978 76.9246 99.6837 74.6296C98.4142 72.3347 97.7794 69.5759 97.7794 66.3533V41.5974H109.352V64.8152C109.352 67.0369 109.925 68.7581 111.073 69.9788C112.22 71.175 113.685 71.7732 115.467 71.7732C117.372 71.7732 118.922 71.1506 120.118 69.9055C121.315 68.636 121.913 66.9392 121.913 64.8152V41.5974H133.485V67.1956C133.485 68.1721 133.57 68.9412 133.741 69.5027C133.912 70.0642 134.217 70.5281 134.657 70.8943C135.096 71.2605 135.755 71.6023 136.634 71.9197L132.533 81.5876C130.336 81.0261 128.59 80.3303 127.296 79.5002C126.026 78.6702 125.135 77.6692 124.623 76.4973H124.33C122.718 78.1086 120.912 79.366 118.91 80.2693C116.908 81.1482 114.747 81.5876 112.428 81.5876ZM141.871 41.5974H153.114V47.1272H153.334C154.652 45.3694 156.312 43.9167 158.314 42.7693C160.316 41.5974 162.623 41.0115 165.235 41.0115C166.188 41.0115 167.079 41.0969 167.909 41.2678C168.739 41.4143 169.337 41.5974 169.703 41.8171L165.052 52.8767C164.735 52.7302 164.271 52.5959 163.661 52.4739C163.05 52.3274 162.391 52.2542 161.683 52.2542C160.389 52.2542 159.108 52.5715 157.838 53.2063C156.568 53.8411 155.519 54.8054 154.689 56.0994C153.859 57.3689 153.443 58.9192 153.443 60.7502V81.0017H141.871V41.5974ZM172.853 41.5974H183.839V45.5159H183.949C185.438 44.051 187.135 42.928 189.039 42.1467C190.943 41.3411 192.982 40.9382 195.155 40.9382C198.207 40.9382 201.075 41.7317 203.761 43.3186C206.471 44.8811 208.644 47.2126 210.279 50.3132C211.915 53.4138 212.709 57.1125 212.66 61.4094C212.709 65.7307 211.915 69.4172 210.279 72.469C208.644 75.5208 206.495 77.8035 203.834 79.3171C201.197 80.8308 198.414 81.5876 195.485 81.5876C193.458 81.5876 191.517 81.2214 189.662 80.489C187.831 79.7322 186.171 78.658 184.681 77.2664H184.425V96.3826H172.853V41.5974ZM192.775 71.9197C194.459 71.8953 195.961 71.4436 197.279 70.5647C198.597 69.6614 199.61 68.4041 200.318 66.7927C201.051 65.1814 201.405 63.3137 201.38 61.1897C201.405 59.0413 201.039 57.1736 200.282 55.5867C199.549 53.9753 198.512 52.7546 197.169 51.9246C195.826 51.0701 194.288 50.655 192.555 50.6794C190.919 50.655 189.442 51.0701 188.124 51.9246C186.83 52.7546 185.804 53.9631 185.047 55.55C184.315 57.137 183.949 59.0168 183.949 61.1897C183.949 63.3137 184.327 65.1814 185.084 66.7927C185.865 68.4041 186.915 69.6614 188.234 70.5647C189.576 71.4436 191.09 71.8953 192.775 71.9197ZM237.306 81.5876C233.546 81.5876 230.091 80.7209 226.942 78.9875C223.817 77.2542 221.339 74.8372 219.508 71.7366C217.677 68.636 216.761 65.1448 216.761 61.2629C216.761 57.3811 217.677 53.9021 219.508 50.8259C221.339 47.7253 223.817 45.3206 226.942 43.6116C230.091 41.8782 233.546 41.0115 237.306 41.0115C241.139 41.0115 244.618 41.8782 247.743 43.6116C250.868 45.3206 253.334 47.7131 255.14 50.7893C256.947 53.8655 257.85 57.3567 257.85 61.2629C257.85 65.1692 256.947 68.6726 255.14 71.7732C253.334 74.8494 250.856 77.2542 247.706 78.9875C244.581 80.7209 241.114 81.5876 237.306 81.5876ZM237.306 71.7C239.112 71.7 240.736 71.2605 242.176 70.3816C243.617 69.5027 244.752 68.2698 245.582 66.6829C246.412 65.0959 246.827 63.2893 246.827 61.2629C246.827 59.2854 246.424 57.5154 245.619 55.9529C244.813 54.366 243.69 53.1331 242.25 52.2542C240.834 51.3508 239.21 50.8992 237.379 50.8992C235.572 50.8992 233.937 51.3386 232.472 52.2175C231.007 53.0964 229.86 54.3293 229.029 55.9163C228.199 57.4788 227.784 59.261 227.784 61.2629C227.784 63.2893 228.199 65.0959 229.029 66.6829C229.86 68.2698 230.995 69.5027 232.435 70.3816C233.9 71.2605 235.524 71.7 237.306 71.7ZM277.003 81.5876C274.684 81.5876 272.438 81.197 270.265 80.4158C268.116 79.6101 266.2 78.4626 264.515 76.9734C262.855 75.4841 261.598 73.7507 260.743 71.7732L269.972 67.8181C270.68 69.1609 271.669 70.2839 272.938 71.1873C274.208 72.0662 275.587 72.5056 277.076 72.5056C277.955 72.5056 278.724 72.3591 279.383 72.0662C280.067 71.7488 280.58 71.3582 280.922 70.8943C281.288 70.406 281.471 69.8933 281.471 69.3562C281.471 68.2576 280.787 67.3909 279.42 66.7561C278.077 66.0969 276.295 65.4622 274.073 64.8518L272.828 64.5222C269.484 63.5701 266.859 62.1418 264.955 60.2375C263.075 58.3088 262.135 55.8796 262.135 52.95C262.135 50.6306 262.745 48.5676 263.966 46.761C265.187 44.9299 266.859 43.5139 268.983 42.5129C271.131 41.512 273.536 41.0115 276.197 41.0115C278.468 41.0115 280.604 41.3899 282.606 42.1467C284.632 42.9036 286.366 43.9412 287.806 45.2595C289.271 46.5535 290.333 47.9939 290.992 49.5808L282.13 53.3162C281.568 52.4617 280.824 51.6926 279.896 51.009C278.993 50.301 277.882 49.947 276.564 49.947C275.441 49.947 274.501 50.24 273.744 50.8259C272.987 51.4119 272.609 52.1443 272.609 53.0232C272.609 53.8533 272.95 54.5491 273.634 55.1106C274.342 55.6477 275.184 56.0872 276.161 56.429C277.137 56.7463 278.566 57.1736 280.445 57.7107C282.203 58.199 283.876 58.8093 285.463 59.5417C287.049 60.2742 288.502 61.4338 289.82 63.0208C291.139 64.5833 291.798 66.5974 291.798 69.0632C291.798 71.4802 291.127 73.6409 289.784 75.5452C288.441 77.4495 286.634 78.9387 284.364 80.0129C282.118 81.0627 279.664 81.5876 277.003 81.5876ZM316.224 81.5876C312.025 81.5876 308.351 80.7332 305.201 79.0242C302.052 77.3152 299.623 74.9348 297.914 71.8831C296.205 68.8069 295.35 65.3157 295.35 61.4094C295.35 57.3811 296.229 53.8289 297.987 50.7527C299.745 47.6521 302.101 45.2595 305.055 43.575C308.033 41.8904 311.293 41.0481 314.833 41.0481C318.226 41.0481 321.302 41.8293 324.061 43.3918C326.82 44.9299 328.993 47.1028 330.58 49.9104C332.191 52.718 332.997 55.9163 332.997 59.5051C332.997 61.4827 332.801 63.3259 332.411 65.0349H305.897C306.581 67.3054 307.826 69.0999 309.632 70.4182C311.439 71.7366 313.588 72.3958 316.078 72.3958C317.811 72.3958 319.581 72.115 321.388 71.5535C323.194 70.9919 324.574 70.3328 325.526 69.5759L329.115 78.2185C327.601 79.2439 325.709 80.0618 323.439 80.6721C321.168 81.2825 318.763 81.5876 316.224 81.5876ZM322.34 57.7839C322.34 56.2214 322.01 54.8665 321.351 53.719C320.716 52.5471 319.813 51.656 318.641 51.0457C317.494 50.4109 316.175 50.0935 314.686 50.0935C312.342 50.0935 310.377 50.8015 308.79 52.2175C307.228 53.6091 306.19 55.4646 305.677 57.7839H322.34Z" fill="#1E1E1E"/>
</svg>
